<svg width="76" height="46" viewBox="0 0 76 46" fill="none" xmlns="http://www.w3.org/2000/svg">
<path d="M73.1345 11.3226L40.4462 1.27959C38.6649 0.732324 36.7431 0.732324 34.963 1.27959L2.27354 11.3226C-0.485059 12.1698 -0.485059 15.8179 2.27354 16.6651L7.97236 18.4159C6.72197 19.9616 5.95322 21.8472 5.87705 23.912C4.74853 24.5589 3.954 25.7261 3.954 27.1194C3.954 28.3827 4.61963 29.4456 5.57822 30.1253L2.58643 43.5878C2.32627 44.7585 3.21689 45.8694 4.41572 45.8694H10.9911C12.1911 45.8694 13.0817 44.7585 12.8216 43.5878L9.82978 30.1253C10.7884 29.4456 11.454 28.3827 11.454 27.1194C11.454 25.7636 10.6958 24.6292 9.61885 23.9706C9.70791 22.2104 10.6079 20.6542 12.0435 19.6675L34.9618 26.7093C36.0235 27.0351 38.0603 27.4417 40.445 26.7093L73.1345 16.6663C75.8942 15.8179 75.8942 12.171 73.1345 11.3226ZM41.5466 30.294C38.2032 31.3206 35.3544 30.7534 33.8603 30.294L16.8657 25.0733L15.204 38.3694C15.204 42.512 25.2774 45.8694 37.704 45.8694C50.1306 45.8694 60.204 42.512 60.204 38.3694L58.5423 25.0722L41.5466 30.294Z" fill="#FF5155"/>
</svg>
