<svg width="221" height="221" viewBox="0 0 221 221" fill="none" xmlns="http://www.w3.org/2000/svg">
<path d="M183.711 114.591C183.689 80.9358 188.749 72.0258 170.511 43.593C152.273 15.1602 107.564 8.86379 73.7545 29.953C39.9449 51.0422 30.8545 78.1638 30.8545 78.1638C30.8545 78.1638 18.5873 109.844 35.8265 141.744C51.5917 170.925 82.6381 187.504 109.566 201.144H178.422C182.607 197.616 186.166 193.406 188.947 188.692C202.969 165.095 183.737 148.247 183.711 114.591Z" fill="#FF5155"/>
<path opacity="0.7" d="M183.711 114.591C183.689 80.9358 188.749 72.0258 170.511 43.593C152.273 15.1602 107.564 8.86379 73.7545 29.953C39.9449 51.0422 30.8545 78.1638 30.8545 78.1638C30.8545 78.1638 18.5873 109.844 35.8265 141.744C51.5917 170.925 82.6381 187.504 109.566 201.144H178.422C182.607 197.616 186.166 193.406 188.947 188.692C202.969 165.095 183.737 148.247 183.711 114.591Z" fill="white"/>
<path d="M102.073 22.5615C102.667 24.9155 102.376 20.5815 103.542 15.2751C104.708 9.96872 106.702 12.1247 106.702 12.1247" stroke="#263238" stroke-linecap="round" stroke-linejoin="round"/>
<path d="M101.708 17.1405L105.364 15.6445" stroke="#263238" stroke-linecap="round" stroke-linejoin="round"/>
<path d="M108.386 13.8496C108.386 13.8496 106.186 18.364 109.491 20.2868" stroke="#263238" stroke-linecap="round" stroke-linejoin="round"/>
<path d="M111.484 12.5645C111.484 12.5645 115.088 14.5665 112.831 18.9049" stroke="#263238" stroke-linecap="round" stroke-linejoin="round"/>
<path d="M109.012 15.377L111.595 17.2646" stroke="#263238" stroke-linecap="round" stroke-linejoin="round"/>
<path d="M111.04 14.5488L109.016 17.7652" stroke="#263238" stroke-linecap="round" stroke-linejoin="round"/>
<path d="M32.3416 128.91C32.3416 128.91 26.2124 128.822 26.1816 134.111" stroke="#263238" stroke-linecap="round" stroke-linejoin="round"/>
<path d="M31.8312 132.245C31.7036 131.466 29.0372 130.485 28.5752 132.517C28.1132 134.55 31.4264 133.331 32.4516 132.381C32.4516 132.381 30.5508 134.229 31.1316 134.748" stroke="#263238" stroke-linecap="round" stroke-linejoin="round"/>
<path d="M32.2052 135.324C32.2052 135.324 31.4 136.332 30.5288 135.852" stroke="#263238" stroke-linecap="round" stroke-linejoin="round"/>
<path d="M37.5687 131.805L32.9707 136.473C32.9707 136.473 35.2851 134.128 36.6271 134.885C38.2991 135.8 36.1299 138.308 34.3435 136.513" stroke="#263238" stroke-linecap="round" stroke-linejoin="round"/>
<path d="M39.892 133.062C39.892 133.062 41.1108 138.646 34.8188 138.844" stroke="#263238" stroke-linecap="round" stroke-linejoin="round"/>
<path d="M121.979 38.1415L124.196 38.5067L124.227 43.5447L129.085 34.6875L136.749 35.9459" stroke="#263238" stroke-linecap="round" stroke-linejoin="round"/>
<path d="M129.925 38.5684L133.295 44.5172" stroke="#263238" stroke-linecap="round" stroke-linejoin="round"/>
<path d="M134.162 39.2637L128.129 43.6681" stroke="#263238" stroke-linecap="round" stroke-linejoin="round"/>
<path d="M91.6756 47.1097C91.108 46.3881 87.8388 46.9029 88.5032 49.2173C89.1676 51.5317 91.8692 48.4473 92.384 46.9029C92.384 46.9029 91.482 49.8553 92.384 50.0533" stroke="#263238" stroke-linecap="round" stroke-linejoin="round"/>
<path d="M94.1791 44.7285L93.4487 47.3245C93.4487 47.3245 93.8139 46.0045 94.4563 46.0045C95.2439 46.0045 94.9579 47.3245 93.9503 47.0517" stroke="#263238" stroke-linecap="round" stroke-linejoin="round"/>
<path d="M155.814 76.7246L154.274 82.2906L157.64 85.9778" stroke="#263238" stroke-linecap="round" stroke-linejoin="round"/>
<path d="M157.742 78.9863L161.596 82.2115" stroke="#263238" stroke-linecap="round" stroke-linejoin="round"/>
<path d="M160.395 78.1953L158.727 82.2917" stroke="#263238" stroke-linecap="round" stroke-linejoin="round"/>
<path d="M163.105 81.7637C163.105 81.7637 163.14 82.9253 162.639 83.0837" stroke="#263238" stroke-linecap="round" stroke-linejoin="round"/>
<path d="M163.594 77.707L165.921 79.4362" stroke="#263238" stroke-linecap="round" stroke-linejoin="round"/>
<path d="M166.784 76.2852L164.487 84.5572" stroke="#263238" stroke-linecap="round" stroke-linejoin="round"/>
<path d="M166.898 73.4121L170.629 77.6361L169.041 82.2561" stroke="#263238" stroke-linecap="round" stroke-linejoin="round"/>
<path d="M64.1401 182.409L69.5389 166.34L76.0861 173.648L64.1401 182.409Z" stroke="#263238" stroke-linecap="round" stroke-linejoin="round"/>
<path d="M74.4802 174.824L73.0986 173.245L74.5726 171.969" stroke="#263238" stroke-linecap="round" stroke-linejoin="round"/>
<path d="M32.2287 92.1296C35.0328 90.9681 36.3644 87.7533 35.2029 84.9492C34.0414 82.1451 30.8267 80.8136 28.0226 81.9751C25.2185 83.1365 23.8869 86.3513 25.0484 89.1554C26.2099 91.9595 29.4246 93.2911 32.2287 92.1296Z" stroke="#263238" stroke-linecap="round" stroke-linejoin="round"/>
<path d="M36.2224 88.3374C39.5905 88.3374 42.3208 85.6071 42.3208 82.239C42.3208 78.871 39.5905 76.1406 36.2224 76.1406C32.8544 76.1406 30.124 78.871 30.124 82.239C30.124 85.6071 32.8544 88.3374 36.2224 88.3374Z" stroke="#263238" stroke-linecap="round" stroke-linejoin="round"/>
<path d="M31.2065 81.6621L30.4629 84.2449" stroke="#263238" stroke-linecap="round" stroke-linejoin="round"/>
<path d="M32.2581 81.9844L31.2065 85.7068" stroke="#263238" stroke-linecap="round" stroke-linejoin="round"/>
<path d="M33.3622 82.6074L32.2578 86.8182" stroke="#263238" stroke-linecap="round" stroke-linejoin="round"/>
<path d="M34.5898 83.8438L33.8022 87.839" stroke="#263238" stroke-linecap="round" stroke-linejoin="round"/>
<path d="M35.2806 85.1465L34.5898 88.1165" stroke="#263238" stroke-linecap="round" stroke-linejoin="round"/>
<path d="M24.8705 80.0077C24.3909 79.8625 23.0753 81.1121 24.0961 81.9525C25.1169 82.7929 25.3765 80.5533 25.1257 79.6953C25.1257 79.6953 25.6405 81.3101 26.1069 81.1165" stroke="#263238" stroke-linecap="round" stroke-linejoin="round"/>
<path d="M31.9629 72.9551L33.7229 76.1583C33.7229 76.1583 32.8429 74.5567 33.4633 73.9583C34.2201 73.2191 35.2233 74.7811 33.9561 75.4367" stroke="#263238" stroke-linecap="round" stroke-linejoin="round"/>
<path d="M64.1226 72.5723L66.6086 74.9263" stroke="#263238" stroke-linecap="round" stroke-linejoin="round"/>
<path d="M66.6085 71.9609L64.5273 75.0673" stroke="#263238" stroke-linecap="round" stroke-linejoin="round"/>
<path d="M69.0552 72.8542L71.5412 71.9258" stroke="#263238" stroke-linecap="round" stroke-linejoin="round"/>
<path d="M72.7334 69.334L74.247 70.6716" stroke="#263238" stroke-linecap="round" stroke-linejoin="round"/>
<path d="M75.4042 67.7227L73.4902 74.2963" stroke="#263238" stroke-linecap="round" stroke-linejoin="round"/>
<path d="M184.067 66.4037L183.961 61.3789H187.758C187.758 61.3789 185.655 62.5405 186.623 65.2421C187.591 67.9437 189.149 66.4037 189.149 66.4037" stroke="#263238" stroke-linecap="round" stroke-linejoin="round"/>
<path d="M177.634 152.119L181.955 149.145L187.675 149.545L188.031 156.796L183.833 159.801L178.65 159.423L177.634 152.119Z" stroke="#263238" stroke-linecap="round" stroke-linejoin="round"/>
<path d="M178.65 159.424L182.83 156.414L188.031 156.797" stroke="#263238" stroke-linecap="round" stroke-linejoin="round"/>
<path d="M182.835 156.413L181.955 149.145" stroke="#263238" stroke-linecap="round" stroke-linejoin="round"/>
<path d="M177.634 152.119L183.341 152.779L187.675 149.545" stroke="#263238" stroke-linecap="round" stroke-linejoin="round"/>
<path d="M183.341 152.779L183.834 159.802" stroke="#263238" stroke-linecap="round" stroke-linejoin="round"/>
<path d="M178.422 97.6562L178.237 107.323L186.707 103.477L178.422 97.6562Z" stroke="#263238" stroke-linecap="round" stroke-linejoin="round"/>
<path d="M178.421 97.6562L182.456 105.352" stroke="#263238" stroke-linecap="round" stroke-linejoin="round"/>
<path d="M181.81 104.116L182.791 103.641L183.451 104.956" stroke="#263238" stroke-linecap="round" stroke-linejoin="round"/>
<path d="M104.572 96.7402L108.074 100.493" stroke="#263238" stroke-linecap="round" stroke-linejoin="round"/>
<path d="M108.101 96.2344L105.157 100.265" stroke="#263238" stroke-linecap="round" stroke-linejoin="round"/>
<path d="M109.535 94.2681C109.703 94.1901 109.895 94.182 110.069 94.2455C110.243 94.309 110.385 94.439 110.463 94.6069C110.491 94.667 110.51 94.7307 110.521 94.7961C110.692 95.6409 109.306 96.7409 109.306 96.7409H111.282" stroke="#263238" stroke-linecap="round" stroke-linejoin="round"/>
<path d="M50.0425 40.5039C50.2102 38.372 50.9124 36.3167 52.0845 34.5279C53.2565 32.7391 54.8604 31.2745 56.7481 30.2695" stroke="#263238" stroke-linecap="round" stroke-linejoin="round"/>
<path d="M59.7709 53.9244C56.5618 53.1547 53.7773 51.1685 52.0049 48.3848" stroke="#263238" stroke-linecap="round" stroke-linejoin="round"/>
<path d="M75.457 42.5332C75.1854 45.9029 73.5877 49.0271 71.0146 51.2198C68.4416 53.4126 65.1035 54.4946 61.7334 54.2284" stroke="#263238" stroke-linecap="round" stroke-linejoin="round"/>
<path d="M63.7617 28.8145C66.6588 29.0467 69.3898 30.261 71.5029 32.2565C73.616 34.2519 74.9845 36.909 75.3821 39.7881" stroke="#263238" stroke-linecap="round" stroke-linejoin="round"/>
<path d="M68.25 51.3326C66.4714 52.3305 64.455 52.8262 62.4165 52.7667C60.378 52.7071 58.3939 52.0946 56.6766 50.9946C54.9593 49.8947 53.5733 48.3486 52.6667 46.5217C51.7602 44.6949 51.3673 42.656 51.53 40.623" stroke="#263238" stroke-linecap="round" stroke-linejoin="round"/>
<path d="M52.2515 37.4733C52.8435 35.9342 53.7667 34.544 54.9556 33.4012C56.1445 32.2584 57.5702 31.3909 59.1315 30.8602C60.6929 30.3295 62.3519 30.1486 63.9909 30.3301C65.63 30.5117 67.2091 31.0514 68.6165 31.9109C70.0239 32.7705 71.2251 33.9289 72.135 35.3042C73.045 36.6795 73.6416 38.2381 73.8824 39.8695C74.1232 41.5009 74.0025 43.1653 73.5287 44.7449C73.0549 46.3245 72.2396 47.7806 71.1407 49.0101" stroke="#263238" stroke-linecap="round" stroke-linejoin="round"/>
<path d="M61.6455 33.4258L62.7499 41.5218L68.9715 39.5858" stroke="#263238" stroke-linecap="round" stroke-linejoin="round"/>
<path d="M159.761 57.2564C157.973 57.2737 156.221 56.7471 154.739 55.7466C153.256 54.746 152.112 53.3187 151.459 51.6536C150.806 49.9885 150.674 48.1642 151.081 46.4225C151.488 44.6808 152.414 43.1038 153.738 41.9004" stroke="#263238" stroke-linecap="round" stroke-linejoin="round"/>
<path d="M168.029 51.2852C167.6 52.5497 166.889 53.7 165.95 54.6491C165.011 55.5982 163.868 56.3211 162.608 56.7632" stroke="#263238" stroke-linecap="round" stroke-linejoin="round"/>
<path d="M156.747 40.104C158.955 39.327 161.381 39.4589 163.492 40.4705C165.602 41.4821 167.225 43.2907 168.002 45.4984" stroke="#263238" stroke-linecap="round" stroke-linejoin="round"/>
<path d="M164.034 41.9746C164.946 42.591 165.717 43.3937 166.296 44.3298C166.875 45.2659 167.249 46.3142 167.393 47.4054C167.538 48.4967 167.449 49.6062 167.134 50.6607C166.818 51.7152 166.282 52.6909 165.562 53.5233C164.842 54.3557 163.953 55.0259 162.955 55.4898C161.957 55.9537 160.871 56.2008 159.771 56.2146C158.67 56.2285 157.579 56.0088 156.569 55.5702C155.56 55.1315 154.655 54.4838 153.914 53.6698" stroke="#263238" stroke-linecap="round" stroke-linejoin="round"/>
<path d="M152.325 51.0129C151.857 49.6804 151.76 48.2456 152.044 46.8622C152.329 45.4787 152.984 44.1987 153.94 43.159C154.896 42.1194 156.117 41.3593 157.472 40.9601C158.826 40.5609 160.264 40.5377 161.631 40.8929" stroke="#263238" stroke-linecap="round" stroke-linejoin="round"/>
<path d="M156.703 43.6191L159.678 48.4283L156.967 51.9439" stroke="#263238" stroke-linecap="round" stroke-linejoin="round"/>
<path d="M97.3252 179.955C97.321 178.8 97.5995 177.663 98.1364 176.641C98.6733 175.619 99.4523 174.745 100.405 174.094" stroke="#263238" stroke-linecap="round" stroke-linejoin="round"/>
<path d="M109.518 184.828C108.678 185.711 107.626 186.362 106.461 186.719C105.297 187.075 104.06 187.126 102.87 186.865C101.681 186.604 100.579 186.04 99.6704 185.229C98.7622 184.417 98.0787 183.385 97.686 182.232" stroke="#263238" stroke-linecap="round" stroke-linejoin="round"/>
<path d="M104.387 172.875C106.265 172.875 108.066 173.621 109.393 174.949C110.721 176.276 111.467 178.077 111.467 179.955" stroke="#263238" stroke-linecap="round" stroke-linejoin="round"/>
<path d="M104.387 186.197C102.731 186.197 101.143 185.539 99.9723 184.368C98.8014 183.197 98.1436 181.609 98.1436 179.953" stroke="#263238" stroke-linecap="round" stroke-linejoin="round"/>
<path d="M99.5249 176.034C100.104 175.319 100.833 174.74 101.661 174.34C102.49 173.939 103.396 173.727 104.316 173.717C105.236 173.708 106.146 173.901 106.983 174.284C107.819 174.667 108.561 175.23 109.154 175.933C109.748 176.636 110.179 177.461 110.417 178.35C110.655 179.238 110.693 180.169 110.53 181.074C110.367 181.979 110.006 182.837 109.472 183.587C108.939 184.336 108.247 184.959 107.445 185.41" stroke="#263238" stroke-linecap="round" stroke-linejoin="round"/>
<path d="M103.419 184.195L104.387 179.954L103.036 176.486" stroke="#263238" stroke-linecap="round" stroke-linejoin="round"/>
<path d="M21.9575 201.303H199.973" stroke="#263238" stroke-linecap="round" stroke-linejoin="round"/>
<path d="M112.281 108.519L109.381 163.726L72.6455 161.799L72.9535 155.947L75.5451 106.588L98.6759 107.802L112.281 108.519Z" fill="white"/>
<mask id="mask0_851_13552" style="mask-type:luminance" maskUnits="userSpaceOnUse" x="72" y="106" width="41" height="58">
<path d="M112.281 108.519L109.381 163.726L72.6455 161.799L72.9535 155.947L75.5451 106.588L98.6759 107.802L112.281 108.519Z" fill="white"/>
</mask>
<g mask="url(#mask0_851_13552)">
<path opacity="0.2" d="M100.814 140.864L92.538 141.546L94.9536 151.969L72.9536 155.947L75.5452 106.588L98.676 107.802L100.814 140.864Z" fill="black" fill-opacity="0.7"/>
</g>
<path d="M112.281 108.519L109.381 163.726L72.6455 161.799L72.9535 155.947L75.5451 106.588L98.6759 107.802L112.281 108.519Z" stroke="#263238" stroke-linecap="round" stroke-linejoin="round"/>
<path d="M78.1367 110.363L87.6979 110.865" stroke="#263238" stroke-width="2" stroke-linecap="round" stroke-linejoin="round"/>
<path d="M78.04 112.197L84.5432 112.54" stroke="#263238" stroke-width="2" stroke-linecap="round" stroke-linejoin="round"/>
<path d="M80.1431 116.654L107.643 118.097" stroke="#263238" stroke-width="2" stroke-linecap="round" stroke-linejoin="round"/>
<path d="M80.0464 118.488L107.546 119.931" stroke="#263238" stroke-width="2" stroke-linecap="round" stroke-linejoin="round"/>
<path d="M79.9365 120.633L103.389 121.86" stroke="#263238" stroke-width="2" stroke-linecap="round" stroke-linejoin="round"/>
<path d="M79.9457 122.586L79.8281 124.822L82.0646 124.94L82.1822 122.703L79.9457 122.586Z" stroke="#263238" stroke-linecap="round" stroke-linejoin="round"/>
<path d="M83.9999 122.801L83.8823 125.037L86.1188 125.155L86.2364 122.918L83.9999 122.801Z" stroke="#263238" stroke-linecap="round" stroke-linejoin="round"/>
<path d="M88.0488 123.015L87.9312 125.252L90.1677 125.37L90.2853 123.133L88.0488 123.015Z" stroke="#263238" stroke-linecap="round" stroke-linejoin="round"/>
<path d="M92.1025 123.23L91.9849 125.467L94.2214 125.584L94.339 123.348L92.1025 123.23Z" stroke="#263238" stroke-linecap="round" stroke-linejoin="round"/>
<path d="M78.6781 116.576C78.6753 116.649 78.6581 116.721 78.6276 116.787C78.5971 116.853 78.5539 116.912 78.5003 116.962C78.4468 117.011 78.384 117.05 78.3156 117.075C78.2472 117.1 78.1746 117.112 78.1017 117.109C77.9535 117.101 77.8144 117.035 77.715 116.925C77.6155 116.815 77.5639 116.669 77.5715 116.521C77.5791 116.373 77.6453 116.234 77.7554 116.134C77.8656 116.035 78.0107 115.983 78.1589 115.991C78.2318 115.994 78.3032 116.012 78.3692 116.043C78.4352 116.074 78.4944 116.118 78.5434 116.172C78.5925 116.226 78.6304 116.289 78.655 116.358C78.6796 116.426 78.6905 116.499 78.6869 116.572L78.6781 116.576Z" fill="#263238"/>
<path d="M79.5801 127.359L107.08 128.803" stroke="#263238" stroke-width="2" stroke-linecap="round" stroke-linejoin="round"/>
<path d="M79.4834 129.195L106.983 130.639" stroke="#263238" stroke-width="2" stroke-linecap="round" stroke-linejoin="round"/>
<path d="M79.373 131.338L102.825 132.565" stroke="#263238" stroke-width="2" stroke-linecap="round" stroke-linejoin="round"/>
<path d="M79.3779 133.299L79.2603 135.535L81.4968 135.653L81.6144 133.416L79.3779 133.299Z" stroke="#263238" stroke-linecap="round" stroke-linejoin="round"/>
<path d="M83.436 133.51L83.3184 135.746L85.5549 135.864L85.6725 133.627L83.436 133.51Z" stroke="#263238" stroke-linecap="round" stroke-linejoin="round"/>
<path d="M87.4853 133.721L87.3677 135.957L89.6042 136.075L89.7218 133.838L87.4853 133.721Z" stroke="#263238" stroke-linecap="round" stroke-linejoin="round"/>
<path d="M91.5346 133.933L91.417 136.17L93.6535 136.288L93.7711 134.051L91.5346 133.933Z" stroke="#263238" stroke-linecap="round" stroke-linejoin="round"/>
<path d="M78.119 127.281C78.1156 127.354 78.0978 127.426 78.0665 127.493C78.0352 127.559 77.9912 127.619 77.9368 127.668C77.8824 127.718 77.8189 127.756 77.7497 127.781C77.6806 127.806 77.6072 127.817 77.5338 127.813C77.4226 127.808 77.3154 127.77 77.2259 127.704C77.1364 127.637 77.0685 127.546 77.0308 127.441C76.9931 127.337 76.9873 127.223 77.0142 127.115C77.041 127.007 77.0993 126.909 77.1816 126.834C77.2639 126.759 77.3666 126.71 77.4767 126.694C77.5868 126.677 77.6994 126.694 77.8001 126.741C77.9009 126.788 77.9854 126.864 78.0429 126.96C78.1005 127.055 78.1285 127.165 78.1234 127.276L78.119 127.281Z" fill="#263238"/>
<path d="M79.021 138.064L106.517 139.508" stroke="#263238" stroke-width="2" stroke-linecap="round" stroke-linejoin="round"/>
<path d="M78.9243 139.9L106.42 141.344" stroke="#263238" stroke-width="2" stroke-linecap="round" stroke-linejoin="round"/>
<path d="M78.8101 142.037L102.262 143.269" stroke="#263238" stroke-width="2" stroke-linecap="round" stroke-linejoin="round"/>
<path d="M78.8193 143.998L78.7017 146.234L80.9382 146.352L81.0558 144.115L78.8193 143.998Z" stroke="#263238" stroke-linecap="round" stroke-linejoin="round"/>
<path d="M83.3473 144.198L83.2354 146.439L85.4766 146.551L85.5885 144.31L83.3473 144.198Z" stroke="#263238" stroke-width="1.00125" stroke-linecap="round" stroke-linejoin="round"/>
<path d="M86.9218 144.428L86.8042 146.664L89.0407 146.782L89.1583 144.545L86.9218 144.428Z" stroke="#263238" stroke-linecap="round" stroke-linejoin="round"/>
<path d="M90.9804 144.637L90.8628 146.873L93.0993 146.991L93.2169 144.754L90.9804 144.637Z" stroke="#263238" stroke-linecap="round" stroke-linejoin="round"/>
<path d="M77.5561 137.987C77.5527 138.06 77.5349 138.132 77.5036 138.199C77.4724 138.265 77.4283 138.325 77.3739 138.374C77.3196 138.424 77.256 138.462 77.1869 138.487C77.1177 138.512 77.0443 138.523 76.9709 138.519C76.8215 138.519 76.6783 138.46 76.5727 138.354C76.467 138.248 76.4077 138.105 76.4077 137.956C76.4077 137.806 76.467 137.663 76.5727 137.558C76.6783 137.452 76.8215 137.393 76.9709 137.393H77.0501C77.1235 137.396 77.1955 137.414 77.262 137.445C77.3286 137.476 77.3882 137.52 77.4377 137.575C77.4872 137.629 77.5254 137.693 77.5502 137.762C77.5751 137.831 77.5861 137.904 77.5825 137.978L77.5561 137.987Z" fill="#263238"/>
<path d="M78.4404 149.074L105.936 150.522" stroke="#263238" stroke-width="2" stroke-linecap="round" stroke-linejoin="round"/>
<path d="M78.3438 150.908L105.844 152.356" stroke="#263238" stroke-width="2" stroke-linecap="round" stroke-linejoin="round"/>
<path d="M78.2334 153.051L101.685 154.283" stroke="#263238" stroke-width="2" stroke-linecap="round" stroke-linejoin="round"/>
<path d="M78.2363 155.012L78.1187 157.248L80.3552 157.366L80.4728 155.129L78.2363 155.012Z" stroke="#263238" stroke-linecap="round" stroke-linejoin="round"/>
<path d="M82.2948 155.222L82.1772 157.459L84.4138 157.577L84.5314 155.34L82.2948 155.222Z" stroke="#263238" stroke-linecap="round" stroke-linejoin="round"/>
<path d="M86.353 155.433L86.2354 157.67L88.4719 157.788L88.5895 155.551L86.353 155.433Z" stroke="#263238" stroke-linecap="round" stroke-linejoin="round"/>
<path d="M90.4023 155.652L90.2847 157.889L92.5212 158.006L92.6388 155.77L90.4023 155.652Z" stroke="#263238" stroke-linecap="round" stroke-linejoin="round"/>
<path d="M76.9751 148.999C76.9689 149.109 76.9301 149.215 76.8637 149.303C76.7972 149.391 76.7061 149.458 76.6019 149.494C76.4977 149.531 76.3849 149.536 76.278 149.508C76.171 149.481 76.0746 149.422 76.0009 149.34C75.9272 149.258 75.8796 149.155 75.864 149.046C75.8484 148.937 75.8656 148.825 75.9133 148.725C75.961 148.626 76.0372 148.543 76.1322 148.486C76.2272 148.43 76.3368 148.403 76.4471 148.409C76.5205 148.413 76.5924 148.431 76.6587 148.463C76.725 148.495 76.7844 148.539 76.8335 148.594C76.8825 148.649 76.9203 148.713 76.9446 148.782C76.9689 148.852 76.9793 148.925 76.9751 148.999Z" fill="#263238"/>
<path d="M80.7065 123.519L80.9969 124.021L82.1893 122.705" stroke="#263238" stroke-width="2" stroke-linecap="round" stroke-linejoin="round"/>
<path d="M88.2568 134.513L88.5472 135.015L89.7396 133.699" stroke="#263238" stroke-width="2" stroke-linecap="round" stroke-linejoin="round"/>
<path d="M92.0454 145.813L92.3358 146.314L93.5282 144.994" stroke="#263238" stroke-width="2" stroke-linecap="round" stroke-linejoin="round"/>
<path d="M83.0693 155.898L83.3597 156.396L84.5521 155.08" stroke="#263238" stroke-width="2" stroke-linecap="round" stroke-linejoin="round"/>
<path d="M87.8696 148.1L52.4276 157.952L37.626 104.681L52.3 100.602L73.068 94.834L86.4968 143.164L87.8696 148.1Z" fill="white"/>
<mask id="mask1_851_13552" style="mask-type:luminance" maskUnits="userSpaceOnUse" x="37" y="94" width="51" height="64">
<path d="M87.8696 148.1L52.4276 157.952L37.626 104.681L52.3 100.602L73.068 94.834L86.4968 143.164L87.8696 148.1Z" fill="white"/>
</mask>
<g mask="url(#mask1_851_13552)">
<path opacity="0.2" d="M86.4966 143.164L59.0934 144.937L52.2998 100.602L73.0678 94.834L86.4966 143.164Z" fill="black" fill-opacity="0.7"/>
</g>
<path d="M87.8696 148.1L52.4276 157.952L37.626 104.681L52.3 100.602L73.068 94.834L86.4968 143.164L87.8696 148.1Z" stroke="#263238" stroke-linecap="round" stroke-linejoin="round"/>
<path d="M41.2866 107.436L50.509 104.875" stroke="#263238" stroke-width="2" stroke-linecap="round" stroke-linejoin="round"/>
<path d="M41.7754 109.209L48.0498 107.467" stroke="#263238" stroke-width="2" stroke-linecap="round" stroke-linejoin="round"/>
<path d="M45.1851 112.765L71.7171 105.395" stroke="#263238" stroke-width="2" stroke-linecap="round" stroke-linejoin="round"/>
<path d="M45.6777 114.534L72.2097 107.164" stroke="#263238" stroke-width="2" stroke-linecap="round" stroke-linejoin="round"/>
<path d="M46.25 116.602L68.8792 110.314" stroke="#263238" stroke-width="2" stroke-linecap="round" stroke-linejoin="round"/>
<path d="M49.046 117.853L46.8882 118.453L47.4878 120.611L49.6457 120.011L49.046 117.853Z" stroke="#263238" stroke-linecap="round" stroke-linejoin="round"/>
<path d="M52.9586 116.762L50.8008 117.361L51.4004 119.519L53.5583 118.92L52.9586 116.762Z" stroke="#263238" stroke-linecap="round" stroke-linejoin="round"/>
<path d="M56.8717 115.674L54.7139 116.273L55.3135 118.431L57.4713 117.832L56.8717 115.674Z" stroke="#263238" stroke-linecap="round" stroke-linejoin="round"/>
<path d="M60.778 114.59L58.6201 115.189L59.2198 117.347L61.3776 116.748L60.778 114.59Z" stroke="#263238" stroke-linecap="round" stroke-linejoin="round"/>
<path d="M43.7727 113.156C43.8124 113.299 43.7936 113.452 43.7206 113.581C43.6476 113.71 43.5262 113.805 43.3833 113.844C43.2403 113.884 43.0875 113.865 42.9583 113.792C42.8292 113.719 42.7344 113.598 42.6947 113.455C42.655 113.312 42.6738 113.159 42.7468 113.03C42.8198 112.901 42.9411 112.806 43.0841 112.766C43.227 112.727 43.3799 112.746 43.509 112.819C43.6382 112.892 43.733 113.013 43.7727 113.156Z" fill="#263238"/>
<path d="M48.0542 123.091L74.5862 115.721" stroke="#263238" stroke-width="2" stroke-linecap="round" stroke-linejoin="round"/>
<path d="M48.5469 124.865L75.0789 117.49" stroke="#263238" stroke-width="2" stroke-linecap="round" stroke-linejoin="round"/>
<path d="M49.123 126.928L71.7478 120.641" stroke="#263238" stroke-width="2" stroke-linecap="round" stroke-linejoin="round"/>
<path d="M51.9176 128.178L49.7598 128.777L50.3594 130.935L52.5172 130.336L51.9176 128.178Z" stroke="#263238" stroke-linecap="round" stroke-linejoin="round"/>
<path d="M55.8268 127.092L53.6689 127.691L54.2686 129.849L56.4264 129.25L55.8268 127.092Z" stroke="#263238" stroke-linecap="round" stroke-linejoin="round"/>
<path d="M59.7399 126.006L57.582 126.605L58.1817 128.763L60.3395 128.164L59.7399 126.006Z" stroke="#263238" stroke-linecap="round" stroke-linejoin="round"/>
<path d="M63.6564 124.914L61.4985 125.514L62.0982 127.672L64.256 127.072L63.6564 124.914Z" stroke="#263238" stroke-linecap="round" stroke-linejoin="round"/>
<path d="M46.6459 123.487C46.6757 123.594 46.673 123.708 46.6382 123.814C46.6034 123.919 46.5381 124.012 46.4504 124.081C46.3628 124.15 46.2568 124.191 46.1458 124.199C46.0348 124.208 45.9238 124.183 45.8268 124.128C45.7299 124.074 45.6512 123.992 45.6009 123.892C45.5506 123.793 45.5308 123.681 45.544 123.571C45.5573 123.46 45.603 123.356 45.6754 123.271C45.7478 123.187 45.8436 123.126 45.9507 123.095C46.0215 123.075 46.0956 123.069 46.1687 123.078C46.2417 123.087 46.3124 123.11 46.3766 123.146C46.4408 123.182 46.4972 123.23 46.5427 123.288C46.5881 123.346 46.6217 123.412 46.6415 123.483L46.6459 123.487Z" fill="#263238"/>
<path d="M50.9272 133.423L77.4548 126.049" stroke="#263238" stroke-width="2" stroke-linecap="round" stroke-linejoin="round"/>
<path d="M51.4199 135.192L77.9475 127.822" stroke="#263238" stroke-width="2" stroke-linecap="round" stroke-linejoin="round"/>
<path d="M51.9922 137.26L74.6214 130.973" stroke="#263238" stroke-width="2" stroke-linecap="round" stroke-linejoin="round"/>
<path d="M54.7848 138.504L52.627 139.104L53.2266 141.261L55.3844 140.662L54.7848 138.504Z" stroke="#263238" stroke-linecap="round" stroke-linejoin="round"/>
<path d="M58.7023 137.416L56.5444 138.016L57.1441 140.173L59.3019 139.574L58.7023 137.416Z" stroke="#263238" stroke-linecap="round" stroke-linejoin="round"/>
<path d="M62.6071 136.33L60.4492 136.93L61.0489 139.088L63.2067 138.488L62.6071 136.33Z" stroke="#263238" stroke-linecap="round" stroke-linejoin="round"/>
<path d="M66.5206 135.244L64.3628 135.844L64.9624 138.002L67.1203 137.402L66.5206 135.244Z" stroke="#263238" stroke-linecap="round" stroke-linejoin="round"/>
<path d="M49.5146 133.815C49.5443 133.922 49.5417 134.036 49.5069 134.142C49.4721 134.248 49.4067 134.341 49.3191 134.409C49.2314 134.478 49.1254 134.519 49.0144 134.527C48.9034 134.536 48.7925 134.511 48.6955 134.456C48.5985 134.402 48.5199 134.32 48.4696 134.22C48.4192 134.121 48.3994 134.009 48.4127 133.899C48.426 133.788 48.4717 133.684 48.544 133.599C48.6164 133.515 48.7122 133.454 48.8194 133.424C48.8902 133.403 48.9642 133.398 49.0373 133.406C49.1104 133.415 49.181 133.438 49.2452 133.474C49.3094 133.51 49.3659 133.558 49.4113 133.616C49.4568 133.674 49.4904 133.74 49.5102 133.811L49.5146 133.815Z" fill="#263238"/>
<path d="M53.8794 144.044L80.407 136.674" stroke="#263238" stroke-width="2" stroke-linecap="round" stroke-linejoin="round"/>
<path d="M54.3682 145.818L80.9002 138.443" stroke="#263238" stroke-width="2" stroke-linecap="round" stroke-linejoin="round"/>
<path d="M54.9443 147.881L77.5735 141.594" stroke="#263238" stroke-width="2" stroke-linecap="round" stroke-linejoin="round"/>
<path d="M57.7374 149.131L55.5796 149.73L56.1792 151.888L58.3371 151.289L57.7374 149.131Z" stroke="#263238" stroke-linecap="round" stroke-linejoin="round"/>
<path d="M61.6505 148.043L59.4927 148.643L60.0923 150.8L62.2501 150.201L61.6505 148.043Z" stroke="#263238" stroke-linecap="round" stroke-linejoin="round"/>
<path d="M65.5641 146.957L63.4062 147.557L64.0059 149.714L66.1637 149.115L65.5641 146.957Z" stroke="#263238" stroke-linecap="round" stroke-linejoin="round"/>
<path d="M69.4733 145.871L67.3154 146.471L67.9151 148.629L70.0729 148.029L69.4733 145.871Z" stroke="#263238" stroke-linecap="round" stroke-linejoin="round"/>
<path d="M52.4672 144.435C52.5086 144.579 52.4913 144.733 52.4191 144.864C52.3469 144.994 52.2257 145.091 52.0822 145.133C51.9386 145.174 51.7845 145.157 51.6537 145.084C51.5229 145.012 51.4262 144.891 51.3848 144.748C51.3439 144.603 51.3617 144.449 51.4343 144.318C51.5068 144.187 51.6282 144.09 51.772 144.048C51.9143 144.008 52.0665 144.026 52.1957 144.098C52.3249 144.17 52.4208 144.289 52.4628 144.431L52.4672 144.435Z" fill="#263238"/>
<path d="M51.583 118.067L52.0186 118.45L52.7314 116.822" stroke="#263238" stroke-width="2" stroke-linecap="round" stroke-linejoin="round"/>
<path d="M50.5225 129.591L50.9581 129.974L51.6665 128.346" stroke="#263238" stroke-width="2" stroke-linecap="round" stroke-linejoin="round"/>
<path d="M53.3911 139.812L53.8267 140.194L54.5351 138.566" stroke="#263238" stroke-width="2" stroke-linecap="round" stroke-linejoin="round"/>
<path d="M64.1582 148.185L64.5938 148.567L65.3066 146.939" stroke="#263238" stroke-width="2" stroke-linecap="round" stroke-linejoin="round"/>
<path d="M91.3306 82.5296L54.7153 86.0488L60.0047 141.081L96.6199 137.562L91.3306 82.5296Z" fill="white" stroke="#263238" stroke-linecap="round" stroke-linejoin="round"/>
<path d="M57.835 89.4054L67.3654 88.4902" stroke="#263238" stroke-width="2" stroke-linecap="round" stroke-linejoin="round"/>
<path d="M58.0112 91.2361L64.4924 90.6113" stroke="#263238" stroke-width="2" stroke-linecap="round" stroke-linejoin="round"/>
<path d="M60.748 95.3329L88.1557 92.6973" stroke="#263238" stroke-width="2" stroke-linecap="round" stroke-linejoin="round"/>
<path d="M60.9238 97.1585L88.3314 94.5273" stroke="#263238" stroke-width="2" stroke-linecap="round" stroke-linejoin="round"/>
<path d="M61.1309 99.2928L84.5081 97.0488" stroke="#263238" stroke-width="2" stroke-linecap="round" stroke-linejoin="round"/>
<path d="M63.6683 101.008L61.439 101.223L61.6532 103.452L63.8826 103.238L63.6683 101.008Z" stroke="#263238" stroke-linecap="round" stroke-linejoin="round"/>
<path d="M67.7093 100.618L65.48 100.832L65.6942 103.061L67.9236 102.847L67.7093 100.618Z" stroke="#263238" stroke-linecap="round" stroke-linejoin="round"/>
<path d="M71.7498 100.235L69.5205 100.449L69.7348 102.679L71.9641 102.464L71.7498 100.235Z" stroke="#263238" stroke-linecap="round" stroke-linejoin="round"/>
<path d="M75.7904 99.8404L73.561 100.055L73.7753 102.284L76.0046 102.07L75.7904 99.8404Z" stroke="#263238" stroke-linecap="round" stroke-linejoin="round"/>
<path d="M59.2917 95.4736C59.3025 95.5844 59.2802 95.696 59.2276 95.7941C59.175 95.8922 59.0945 95.9726 58.9962 96.025C58.898 96.0774 58.7864 96.0995 58.6756 96.0885C58.5648 96.0775 58.4597 96.0339 58.3737 95.9633C58.2876 95.8926 58.2245 95.798 58.1922 95.6914C58.1599 95.5849 58.1599 95.4711 58.1922 95.3646C58.2245 95.258 58.2877 95.1634 58.3738 95.0928C58.4598 95.0221 58.5649 94.9786 58.6757 94.9676C58.7488 94.9603 58.8227 94.9675 58.893 94.9888C58.9633 95.0101 59.0287 95.045 59.0855 95.0916C59.1423 95.1382 59.1894 95.1955 59.224 95.2603C59.2587 95.3251 59.2802 95.3961 59.2873 95.4692L59.2917 95.4736Z" fill="#263238"/>
<path d="M61.7729 106.002L89.1806 103.371" stroke="#263238" stroke-width="2" stroke-linecap="round" stroke-linejoin="round"/>
<path d="M61.9492 107.833L89.3568 105.197" stroke="#263238" stroke-width="2" stroke-linecap="round" stroke-linejoin="round"/>
<path d="M62.1558 109.967L85.533 107.719" stroke="#263238" stroke-width="2" stroke-linecap="round" stroke-linejoin="round"/>
<path d="M64.6932 111.676L62.4639 111.891L62.6781 114.12L64.9075 113.906L64.6932 111.676Z" stroke="#263238" stroke-linecap="round" stroke-linejoin="round"/>
<path d="M68.7342 111.292L66.5049 111.506L66.7192 113.735L68.9485 113.521L68.7342 111.292Z" stroke="#263238" stroke-linecap="round" stroke-linejoin="round"/>
<path d="M72.7747 110.903L70.5454 111.117L70.7597 113.347L72.989 113.132L72.7747 110.903Z" stroke="#263238" stroke-linecap="round" stroke-linejoin="round"/>
<path d="M76.8162 110.522L74.5869 110.736L74.8012 112.966L77.0305 112.751L76.8162 110.522Z" stroke="#263238" stroke-linecap="round" stroke-linejoin="round"/>
<path d="M60.3166 106.143C60.3274 106.254 60.3051 106.366 60.2525 106.464C60.1999 106.562 60.1194 106.642 60.0211 106.695C59.9229 106.747 59.8113 106.769 59.7005 106.758C59.5897 106.747 59.4846 106.704 59.3986 106.633C59.3125 106.562 59.2494 106.468 59.2171 106.361C59.1848 106.255 59.1848 106.141 59.2171 106.034C59.2494 105.928 59.3126 105.833 59.3987 105.763C59.4848 105.692 59.5898 105.648 59.7006 105.638C59.7743 105.63 59.8487 105.638 59.9196 105.659C59.9904 105.681 60.0563 105.716 60.1136 105.763C60.1708 105.81 60.2182 105.868 60.253 105.933C60.2878 105.998 60.3095 106.07 60.3166 106.143Z" fill="#263238"/>
<path d="M62.7983 116.672L90.2059 114.041" stroke="#263238" stroke-width="2" stroke-linecap="round" stroke-linejoin="round"/>
<path d="M62.9746 118.503L90.3822 115.867" stroke="#263238" stroke-width="2" stroke-linecap="round" stroke-linejoin="round"/>
<path d="M63.1812 120.637L86.5584 118.389" stroke="#263238" stroke-width="2" stroke-linecap="round" stroke-linejoin="round"/>
<path d="M65.7181 122.348L63.4888 122.562L63.703 124.792L65.9324 124.578L65.7181 122.348Z" stroke="#263238" stroke-linecap="round" stroke-linejoin="round"/>
<path d="M69.7591 121.96L67.5298 122.174L67.7441 124.403L69.9734 124.189L69.7591 121.96Z" stroke="#263238" stroke-linecap="round" stroke-linejoin="round"/>
<path d="M73.7996 121.575L71.5703 121.789L71.7846 124.018L74.0139 123.804L73.7996 121.575Z" stroke="#263238" stroke-linecap="round" stroke-linejoin="round"/>
<path d="M77.8407 121.186L75.6113 121.4L75.8256 123.63L78.0549 123.415L77.8407 121.186Z" stroke="#263238" stroke-linecap="round" stroke-linejoin="round"/>
<path d="M61.3375 116.813C61.3475 116.923 61.3246 117.034 61.2718 117.131C61.2189 117.228 61.1385 117.307 61.0406 117.358C60.9428 117.41 60.8319 117.431 60.722 117.419C60.6121 117.408 60.5081 117.364 60.4232 117.293C60.3383 117.222 60.2763 117.128 60.245 117.022C60.2137 116.916 60.2146 116.803 60.2474 116.697C60.2803 116.592 60.3437 116.498 60.4297 116.429C60.5156 116.359 60.6202 116.317 60.7303 116.307C60.8034 116.3 60.8771 116.308 60.9471 116.33C61.0172 116.352 61.0823 116.387 61.1387 116.434C61.1951 116.481 61.2417 116.539 61.2758 116.604C61.3099 116.669 61.3309 116.74 61.3375 116.813Z" fill="#263238"/>
<path d="M63.8545 127.649L91.2621 125.014" stroke="#263238" stroke-width="2" stroke-linecap="round" stroke-linejoin="round"/>
<path d="M64.0303 129.477L91.4379 126.846" stroke="#263238" stroke-width="2" stroke-linecap="round" stroke-linejoin="round"/>
<path d="M64.2329 131.609L87.6101 129.365" stroke="#263238" stroke-width="2" stroke-linecap="round" stroke-linejoin="round"/>
<path d="M66.7723 133.325L64.543 133.539L64.7572 135.768L66.9866 135.554L66.7723 133.325Z" stroke="#263238" stroke-linecap="round" stroke-linejoin="round"/>
<path d="M70.8177 132.94L68.5884 133.154L68.8026 135.384L71.032 135.169L70.8177 132.94Z" stroke="#263238" stroke-linecap="round" stroke-linejoin="round"/>
<path d="M74.8533 132.547L72.624 132.762L72.8383 134.991L75.0676 134.777L74.8533 132.547Z" stroke="#263238" stroke-linecap="round" stroke-linejoin="round"/>
<path d="M78.8944 132.157L76.665 132.371L76.8793 134.6L79.1086 134.386L78.8944 132.157Z" stroke="#263238" stroke-linecap="round" stroke-linejoin="round"/>
<path d="M62.3938 127.786C62.4055 127.897 62.384 128.009 62.3319 128.108C62.2797 128.206 62.1994 128.288 62.1011 128.341C62.0027 128.394 61.8909 128.416 61.7796 128.405C61.6684 128.395 61.5629 128.351 61.4766 128.28C61.3902 128.209 61.3268 128.115 61.2945 128.008C61.2622 127.901 61.2625 127.786 61.2953 127.68C61.328 127.573 61.3918 127.478 61.4785 127.408C61.5652 127.337 61.6709 127.294 61.7822 127.284C61.8553 127.277 61.9291 127.284 61.9994 127.305C62.0698 127.326 62.1352 127.361 62.192 127.408C62.2488 127.455 62.2959 127.512 62.3305 127.577C62.3651 127.641 62.3866 127.712 62.3938 127.786Z" fill="#263238"/>
<path d="M62.3188 102.037L62.6796 102.49L63.6652 101.012" stroke="#263238" stroke-width="2" stroke-linecap="round" stroke-linejoin="round"/>
<path d="M71.4136 111.797L71.7744 112.25L72.7556 110.771" stroke="#263238" stroke-width="2" stroke-linecap="round" stroke-linejoin="round"/>
<path d="M68.417 123.078L68.7778 123.531L69.7634 122.053" stroke="#263238" stroke-width="2" stroke-linecap="round" stroke-linejoin="round"/>
<path d="M77.4941 133.193L77.8549 133.646L78.8405 132.168" stroke="#263238" stroke-width="2" stroke-linecap="round" stroke-linejoin="round"/>
<path d="M136.111 60.8359H113.376C112.573 60.8359 111.803 61.1549 111.236 61.7226C110.668 62.2903 110.349 63.0603 110.349 63.8631V83.4035C110.349 84.2064 110.668 84.9764 111.236 85.5441C111.803 86.1118 112.573 86.4307 113.376 86.4307H123.452L129.225 93.3871L127.778 86.4307H136.111C136.912 86.4272 137.678 86.1068 138.243 85.5394C138.808 84.9721 139.125 84.2041 139.125 83.4035V63.8631C139.125 63.0626 138.808 62.2946 138.243 61.7272C137.678 61.1599 136.912 60.8394 136.111 60.8359Z" fill="white" stroke="#263238" stroke-linecap="round" stroke-linejoin="round"/>
<path d="M126.563 71.5538V69.4857L125.014 69.3537C124.922 69.0309 124.793 68.7195 124.631 68.4253L125.63 67.2373L124.165 65.7765L122.977 66.7753C122.684 66.6108 122.372 66.4823 122.049 66.3925L121.917 64.8438H119.849L119.717 66.3925C119.393 66.4823 119.081 66.6108 118.788 66.7753L117.6 65.7765L116.135 67.2373L117.125 68.4429C116.961 68.7366 116.831 69.0481 116.738 69.3713L115.189 69.5033V71.5713L116.738 71.7077C116.831 72.031 116.961 72.3425 117.125 72.6361L116.122 73.8241L117.587 75.2849L118.775 74.2861C119.068 74.4507 119.38 74.5792 119.703 74.6689L119.835 76.2177H121.903L122.035 74.6689C122.359 74.5792 122.671 74.4507 122.964 74.2861L124.152 75.2849L125.617 73.8241L124.618 72.6361C124.78 72.342 124.908 72.0306 125.001 71.7077L126.563 71.5538ZM120.883 72.9265C120.407 72.9274 119.941 72.7871 119.545 72.5234C119.148 72.2596 118.839 71.8843 118.656 71.4449C118.473 71.0054 118.425 70.5216 118.517 70.0545C118.609 69.5875 118.837 69.1582 119.173 68.821C119.509 68.4838 119.938 68.2538 120.404 68.1601C120.871 68.0663 121.355 68.1131 121.795 68.2945C122.235 68.4758 122.612 68.7836 122.877 69.1789C123.142 69.5743 123.284 70.0393 123.285 70.5153C123.286 70.831 123.225 71.1438 123.105 71.4357C122.985 71.7277 122.809 71.9931 122.586 72.2167C122.363 72.4403 122.098 72.6177 121.807 72.7388C121.515 72.8598 121.203 72.9221 120.887 72.9221L120.883 72.9265Z" fill="#FF5155"/>
<path d="M133.405 76.1705V74.7009L132.301 74.6041C132.236 74.374 132.145 74.1524 132.028 73.9441L132.741 73.0993L131.702 72.0609L130.853 72.7693C130.644 72.6541 130.423 72.5626 130.193 72.4965L130.101 71.3965H128.627L128.534 72.4965C128.303 72.5626 128.081 72.6541 127.87 72.7693L127.025 72.0609L125.987 73.0993L126.695 73.9441C126.579 74.1525 126.489 74.3741 126.427 74.6041L125.322 74.7009V76.1705L126.427 76.2673C126.489 76.4973 126.579 76.7188 126.695 76.9273L125.987 77.7721L127.025 78.8149L127.87 78.1021C128.079 78.221 128.302 78.3127 128.534 78.3749L128.627 79.4793H130.101L130.193 78.3749C130.424 78.3127 130.646 78.221 130.853 78.1021L131.702 78.8149L132.741 77.7721L132.028 76.9273C132.147 76.7199 132.238 76.4981 132.301 76.2673L133.405 76.1705ZM129.361 77.1473C129.023 77.1473 128.692 77.0469 128.411 76.8588C128.129 76.6708 127.91 76.4034 127.78 76.0907C127.651 75.7779 127.617 75.4338 127.683 75.1018C127.749 74.7697 127.912 74.4648 128.151 74.2254C128.391 73.986 128.696 73.823 129.028 73.757C129.36 73.6909 129.704 73.7248 130.016 73.8544C130.329 73.9839 130.597 74.2033 130.785 74.4848C130.973 74.7662 131.073 75.0972 131.073 75.4357C131.073 75.8896 130.893 76.325 130.572 76.646C130.251 76.967 129.815 77.1473 129.361 77.1473Z" fill="#FF5155"/>
<path d="M126.207 79.597V78.563L125.419 78.4926C125.374 78.3283 125.309 78.1702 125.226 78.0218L125.732 77.4234L124.992 76.6798L124.39 77.1858C124.241 77.1059 124.085 77.0411 123.923 76.9922L123.853 76.209H122.806L122.74 76.9922C122.576 77.0391 122.418 77.1041 122.269 77.1858L121.666 76.6798L120.927 77.4234L121.433 78.0218C121.351 78.1711 121.286 78.329 121.239 78.4926L120.456 78.563V79.6058L121.239 79.6762C121.286 79.8398 121.351 79.9977 121.433 80.147L120.927 80.763L121.666 81.5066L122.269 81.0006C122.419 81.0805 122.577 81.1453 122.74 81.1942L122.806 81.9774H123.853L123.923 81.1942C124.085 81.1453 124.241 81.0804 124.39 81.0006L124.992 81.5066L125.732 80.763L125.226 80.1646C125.309 80.0162 125.374 79.8581 125.419 79.6938L126.207 79.597ZM123.329 80.2922C123.088 80.2922 122.853 80.2207 122.652 80.0868C122.452 79.9529 122.295 79.7625 122.203 79.5398C122.111 79.3171 122.087 79.072 122.134 78.8356C122.181 78.5992 122.297 78.382 122.467 78.2116C122.638 78.0411 122.855 77.925 123.091 77.878C123.328 77.831 123.573 77.8551 123.796 77.9474C124.018 78.0396 124.209 78.1958 124.343 78.3963C124.477 78.5967 124.548 78.8323 124.548 79.0734C124.547 79.3959 124.418 79.7047 124.19 79.9324C123.961 80.16 123.652 80.2878 123.329 80.2878V80.2922Z" fill="#FF5155"/>
<path d="M124.135 135.926L141.858 201.301H144.507L126.788 135.926H124.135Z" fill="#757575" stroke="#263238" stroke-linecap="round" stroke-linejoin="round"/>
<path d="M164.052 182.77H130.458V185.506H164.052V182.77Z" fill="#999999" stroke="#263238" stroke-linecap="round" stroke-linejoin="round"/>
<path d="M181.973 121.244L160.268 201.324H157.628L179.329 121.244C180.129 118.292 178.295 115.889 175.237 115.889H156.537C153.483 115.889 150.341 118.292 149.541 121.244L127.831 201.324H125.191L146.896 121.244C148.08 116.875 152.709 113.324 157.232 113.324H175.936C180.446 113.324 183.157 116.871 181.973 121.244Z" fill="#757575" stroke="#263238" stroke-linecap="round" stroke-linejoin="round"/>
<path d="M182.316 121.266L176.931 141.145C176.671 141.982 176.158 142.718 175.463 143.251C174.768 143.784 173.925 144.089 173.05 144.124H142.32C141.95 144.153 141.578 144.089 141.238 143.937C140.899 143.786 140.603 143.552 140.377 143.256C140.151 142.961 140.003 142.614 139.946 142.247C139.889 141.879 139.924 141.504 140.05 141.154L145.44 121.275C145.701 120.44 146.215 119.706 146.909 119.174C147.604 118.643 148.446 118.339 149.321 118.305H180.046C180.339 118.284 180.633 118.321 180.912 118.413C181.19 118.506 181.448 118.653 181.67 118.846C181.892 119.038 182.074 119.272 182.205 119.535C182.336 119.798 182.414 120.084 182.435 120.377C182.455 120.678 182.415 120.98 182.316 121.266Z" fill="#FF5155"/>
<mask id="mask2_851_13552" style="mask-type:luminance" maskUnits="userSpaceOnUse" x="139" y="118" width="44" height="27">
<path d="M182.316 121.266L176.931 141.145C176.671 141.982 176.158 142.718 175.463 143.251C174.768 143.784 173.925 144.089 173.05 144.124H142.32C141.95 144.153 141.578 144.089 141.238 143.937C140.899 143.786 140.603 143.552 140.377 143.256C140.151 142.961 140.003 142.614 139.946 142.247C139.889 141.879 139.924 141.504 140.05 141.154L145.44 121.275C145.701 120.44 146.215 119.706 146.909 119.174C147.604 118.643 148.446 118.339 149.321 118.305H180.046C180.339 118.284 180.633 118.321 180.912 118.413C181.19 118.506 181.448 118.653 181.67 118.846C181.892 119.038 182.074 119.272 182.205 119.535C182.336 119.798 182.414 120.084 182.435 120.377C182.455 120.678 182.415 120.98 182.316 121.266Z" fill="white"/>
</mask>
<g mask="url(#mask2_851_13552)">
<path opacity="0.2" d="M182.316 121.266L176.931 141.145C176.671 141.982 176.158 142.718 175.463 143.252C174.768 143.785 173.925 144.09 173.05 144.124H142.32C141.95 144.153 141.578 144.089 141.238 143.938C140.899 143.786 140.603 143.552 140.377 143.257C140.151 142.962 140.003 142.614 139.946 142.247C139.889 141.88 139.924 141.504 140.05 141.154L145.44 121.275C145.701 120.44 146.215 119.707 146.909 119.175C147.604 118.643 148.446 118.339 149.321 118.305H165.209C172.077 125.345 171.202 138.321 170.753 142.237C171.47 142.064 172.13 141.709 172.669 141.206C173.209 140.704 173.61 140.071 173.833 139.368L179.21 119.484C179.32 119.1 179.342 118.695 179.276 118.301H180.046C180.415 118.274 180.785 118.34 181.123 118.492C181.461 118.644 181.755 118.877 181.98 119.171C182.206 119.465 182.354 119.811 182.413 120.176C182.471 120.542 182.438 120.917 182.316 121.266Z" fill="black" fill-opacity="0.7"/>
</g>
<path d="M182.316 121.266L176.931 141.145C176.671 141.982 176.158 142.718 175.463 143.251C174.768 143.784 173.925 144.089 173.05 144.124H142.32C141.95 144.153 141.578 144.089 141.238 143.937C140.899 143.786 140.603 143.552 140.377 143.256C140.151 142.961 140.003 142.614 139.946 142.247C139.889 141.879 139.924 141.504 140.05 141.154L145.44 121.275C145.701 120.44 146.215 119.706 146.909 119.174C147.604 118.643 148.446 118.339 149.321 118.305H180.046C180.339 118.284 180.633 118.321 180.912 118.413C181.19 118.506 181.448 118.653 181.67 118.846C181.892 119.038 182.074 119.272 182.205 119.535C182.336 119.798 182.414 120.084 182.435 120.377C182.455 120.678 182.415 120.98 182.316 121.266Z" stroke="#263238" stroke-linecap="round" stroke-linejoin="round"/>
<path d="M164.25 164.236L174.299 201.302H176.948L166.903 164.236H164.25Z" fill="#757575" stroke="#263238" stroke-linecap="round" stroke-linejoin="round"/>
<path d="M166.911 159.963V163.589H127.347V159.963C127.347 159.256 127.628 158.578 128.128 158.078C128.628 157.578 129.306 157.297 130.013 157.297H164.241C164.591 157.296 164.939 157.364 165.263 157.497C165.587 157.631 165.882 157.827 166.13 158.075C166.378 158.323 166.575 158.617 166.709 158.941C166.843 159.265 166.912 159.613 166.911 159.963Z" fill="#FF5155"/>
<mask id="mask3_851_13552" style="mask-type:luminance" maskUnits="userSpaceOnUse" x="127" y="157" width="40" height="7">
<path d="M166.911 159.963V163.589H127.347V159.963C127.347 159.256 127.628 158.578 128.128 158.078C128.628 157.578 129.306 157.297 130.013 157.297H164.241C164.591 157.296 164.939 157.364 165.263 157.497C165.587 157.631 165.882 157.827 166.13 158.075C166.378 158.323 166.575 158.617 166.709 158.941C166.843 159.265 166.912 159.613 166.911 159.963Z" fill="white"/>
</mask>
<g mask="url(#mask3_851_13552)">
<path opacity="0.2" d="M166.819 159.281C165.539 160.786 163.242 162.317 159.291 163.606H127.347V159.963C127.347 159.256 127.628 158.578 128.128 158.078C128.628 157.578 129.306 157.297 130.013 157.297H164.241C164.829 157.297 165.401 157.492 165.867 157.851C166.333 158.21 166.668 158.713 166.819 159.281Z" fill="black" fill-opacity="0.7"/>
</g>
<path d="M166.911 159.963V163.589H127.347V159.963C127.347 159.256 127.628 158.578 128.128 158.078C128.628 157.578 129.306 157.297 130.013 157.297H164.241C164.591 157.296 164.939 157.364 165.263 157.497C165.587 157.631 165.882 157.827 166.13 158.075C166.378 158.323 166.575 158.617 166.709 158.941C166.843 159.265 166.912 159.613 166.911 159.963Z" stroke="#263238" stroke-linecap="round" stroke-linejoin="round"/>
<path d="M168.254 162.494H126.348C125.933 162.494 125.596 162.831 125.596 163.247V165.143C125.596 165.558 125.933 165.895 126.348 165.895H168.254C168.669 165.895 169.006 165.558 169.006 165.143V163.247C169.006 162.831 168.669 162.494 168.254 162.494Z" fill="#999999" stroke="#263238" stroke-linecap="round" stroke-linejoin="round"/>
<path d="M126.062 162.603C124.165 164.535 133.357 194.886 133.357 194.886C132.354 195.766 130.875 196.171 129.476 196.355C128.19 196.515 126.89 196.534 125.6 196.413C125.6 196.413 112.426 164.46 116.052 156.531C119.677 148.602 142.175 145.003 142.175 145.003L143.134 142.627L154.772 140.99L156.695 155.242C156.695 155.242 154.785 155.427 151.912 155.796C144.207 156.773 129.547 159.083 126.062 162.603Z" fill="#263238"/>
<mask id="mask4_851_13552" style="mask-type:luminance" maskUnits="userSpaceOnUse" x="115" y="140" width="42" height="57">
<path d="M126.062 162.603C124.165 164.535 133.357 194.886 133.357 194.886C132.354 195.766 130.875 196.171 129.476 196.355C128.19 196.515 126.89 196.534 125.6 196.413C125.6 196.413 112.426 164.46 116.052 156.531C119.677 148.602 142.175 145.003 142.175 145.003L143.134 142.627L154.772 140.99L156.695 155.242C156.695 155.242 154.785 155.427 151.912 155.796C144.207 156.773 129.547 159.083 126.062 162.603Z" fill="white"/>
</mask>
<g mask="url(#mask4_851_13552)">
<path opacity="0.3" d="M133.357 194.903C132.354 195.783 130.876 196.188 129.476 196.372C126.92 186.868 120.412 161.507 122.876 158.405C125.917 154.577 140.965 151.096 140.965 151.096C141.026 149.143 146.302 147.383 146.302 147.383L151.908 155.782C144.203 156.772 129.542 159.082 126.058 162.602C124.166 164.552 133.357 194.903 133.357 194.903Z" fill="black"/>
</g>
<path d="M126.062 162.603C124.165 164.535 133.357 194.886 133.357 194.886C132.354 195.766 130.875 196.171 129.476 196.355C128.19 196.515 126.89 196.534 125.6 196.413C125.6 196.413 112.426 164.46 116.052 156.531C119.677 148.602 142.175 145.003 142.175 145.003L143.134 142.627L154.772 140.99L156.695 155.242C156.695 155.242 154.785 155.427 151.912 155.796C144.207 156.773 129.547 159.083 126.062 162.603Z" stroke="#263238" stroke-linecap="round" stroke-linejoin="round"/>
<path d="M119.55 133.876C117.618 133.546 131.368 121.49 131.368 121.49L137.999 125.952C137.999 125.952 126.717 133.898 124.944 134.114C123.171 134.329 119.55 133.876 119.55 133.876Z" fill="white"/>
<mask id="mask5_851_13552" style="mask-type:luminance" maskUnits="userSpaceOnUse" x="119" y="121" width="19" height="14">
<path d="M119.55 133.876C117.618 133.546 131.368 121.49 131.368 121.49L137.999 125.952C137.999 125.952 126.717 133.898 124.944 134.114C123.171 134.329 119.55 133.876 119.55 133.876Z" fill="white"/>
</mask>
<g mask="url(#mask5_851_13552)">
<path opacity="0.2" d="M119.55 133.876C117.618 133.546 131.368 121.49 131.368 121.49L137.999 125.952C137.999 125.952 126.717 133.898 124.944 134.114C123.171 134.329 119.55 133.876 119.55 133.876Z" fill="black" fill-opacity="0.7"/>
</g>
<path d="M119.55 133.876C117.618 133.546 131.368 121.49 131.368 121.49L137.999 125.952C137.999 125.952 126.717 133.898 124.944 134.114C123.171 134.329 119.55 133.876 119.55 133.876Z" stroke="#263238" stroke-linecap="round" stroke-linejoin="round"/>
<path d="M121.965 128.807C121.965 128.807 124.847 129.524 125.732 130.127C126.616 130.729 126.361 132.907 126.361 132.907C126.361 132.907 122.52 131.825 121.965 128.807Z" fill="white" stroke="#263238" stroke-linecap="round" stroke-linejoin="round"/>
<path d="M120.126 123.285L125.486 133.564H126.119L121.028 122.779L120.126 123.285Z" fill="#263238"/>
<path d="M124.958 130.717C124.958 130.717 121.578 128.314 120.751 128.314C119.924 128.314 117.447 131.24 117.447 132.714C117.447 134.188 122.85 134.994 123.906 133.748C124.434 133.128 123.387 131.632 123.387 131.632C124.016 132.301 124.691 132.926 125.406 133.502C125.846 133.748 126.687 133.427 126.687 133.427C126.687 133.427 125.56 131.623 124.958 130.717Z" fill="white" stroke="#263238" stroke-linecap="round" stroke-linejoin="round"/>
<path d="M123.387 134.087C122.608 133.098 121.651 132.262 120.566 131.623" stroke="#263238" stroke-linecap="round" stroke-linejoin="round"/>
<path d="M123.387 131.624C123.387 131.624 122.216 130.603 121.429 130.379" stroke="#263238" stroke-linecap="round" stroke-linejoin="round"/>
<path d="M119.704 132.922C120.522 133.341 121.312 133.815 122.067 134.339" stroke="#263238" stroke-linecap="round" stroke-linejoin="round"/>
<path d="M135.676 116.219C133.947 117.424 126.181 125.41 126.181 125.41C126.181 125.41 129.819 129.551 133.009 130.149L141.655 125.952L135.676 116.219Z" fill="#FF5155" stroke="#263238" stroke-linecap="round" stroke-linejoin="round"/>
<path opacity="0.4" d="M135.676 116.219C133.947 117.424 126.181 125.41 126.181 125.41C126.181 125.41 129.819 129.551 133.009 130.149L141.655 125.952L135.676 116.219Z" fill="white" stroke="#263238" stroke-linecap="round" stroke-linejoin="round"/>
<path d="M131.5 191.684L135.166 201.324C135.166 201.324 135.773 203.801 124.72 203.018L118.63 202.499L131.5 191.684Z" fill="#FF5155"/>
<mask id="mask6_851_13552" style="mask-type:luminance" maskUnits="userSpaceOnUse" x="118" y="191" width="18" height="13">
<path d="M131.5 191.684L135.166 201.324C135.166 201.324 135.773 203.801 124.72 203.018L118.63 202.499L131.5 191.684Z" fill="white"/>
</mask>
<g mask="url(#mask6_851_13552)">
<path opacity="0.3" d="M131.5 191.684L135.166 201.324C135.166 201.324 135.773 203.801 124.72 203.018L118.63 202.499L131.5 191.684Z" fill="black"/>
</g>
<path d="M131.5 191.684L135.166 201.324C135.166 201.324 135.773 203.801 124.72 203.018L118.63 202.499L131.5 191.684Z" stroke="#263238" stroke-linecap="round" stroke-linejoin="round"/>
<path d="M130.11 196.295C130.11 196.295 130.893 200.04 130.11 202.825C130.11 202.825 118.446 204.651 115.836 203.956C113.227 203.261 111.643 201.958 111.564 201.316C111.564 201.316 111.656 199.529 114.27 199.006C116.884 198.482 122.08 198.126 124.135 195.178C126.19 192.23 130.11 196.295 130.11 196.295Z" fill="#FF5155" stroke="#263238" stroke-linecap="round" stroke-linejoin="round"/>
<path d="M145.501 142.24C149.228 136.925 166.361 143.322 166.361 143.322C166.361 143.322 167.994 156.118 161.169 159.532C154.345 162.946 144.507 162.762 141.849 165.529L131.034 197.464C131.034 197.464 127.149 199.088 121.499 196.532C121.499 196.532 128.367 172.415 130.383 163.853C132.376 155.378 145.281 149.628 145.281 149.628C144.616 148.842 144.112 147.933 143.798 146.952" fill="#263238"/>
<path d="M145.501 142.24C149.228 136.925 166.361 143.322 166.361 143.322C166.361 143.322 167.994 156.118 161.169 159.532C154.345 162.946 144.507 162.762 141.849 165.529L131.034 197.464C131.034 197.464 127.149 199.088 121.499 196.532C121.499 196.532 128.367 172.415 130.383 163.853C132.376 155.378 145.281 149.628 145.281 149.628C144.616 148.842 144.112 147.933 143.798 146.952" stroke="#263238" stroke-linecap="round" stroke-linejoin="round"/>
<path d="M162.846 154.473C162.299 154.957 161.725 155.41 161.125 155.828" stroke="white" stroke-linecap="round" stroke-linejoin="round"/>
<path d="M164.25 143.635C165.649 146.671 165.759 150.525 163.81 153.337" stroke="white" stroke-linecap="round" stroke-linejoin="round"/>
<path d="M160.347 144.123C160.347 144.123 159.99 146.464 161.033 147.392C162.076 148.321 165.275 148.791 165.275 148.791" stroke="white" stroke-linecap="round" stroke-linejoin="round"/>
<path d="M146.302 144.229C146.302 144.229 146.447 146.561 145.501 146.451C144.555 146.341 144.507 147.383 144.507 147.383" stroke="white" stroke-linecap="round" stroke-linejoin="round"/>
<path d="M135.905 118.015C135.76 117.427 135.684 116.825 135.676 116.219C135.676 116.219 140.956 111.767 147.754 111.793C155.85 111.819 160.8 114.367 162.78 117.905C165.921 123.501 166.361 143.323 166.361 143.323C166.361 143.323 146.047 146.456 143.134 142.615C142.628 141.946 143.015 137.225 143.015 137.225C143.015 137.225 140.74 131.259 140.261 126.63C139.592 125.709 138.971 124.754 138.399 123.77C137.676 122.558 137.049 121.292 136.525 119.981" fill="#FF5155"/>
<path d="M135.905 118.015C135.76 117.427 135.684 116.825 135.676 116.219C135.676 116.219 140.956 111.767 147.754 111.793C155.85 111.819 160.8 114.367 162.78 117.905C165.921 123.501 166.361 143.323 166.361 143.323C166.361 143.323 146.047 146.456 143.134 142.615C142.628 141.946 143.015 137.225 143.015 137.225C143.015 137.225 140.74 131.259 140.261 126.63C139.592 125.709 138.971 124.754 138.399 123.77C137.676 122.558 137.049 121.292 136.525 119.981" stroke="#263238" stroke-linecap="round" stroke-linejoin="round"/>
<g opacity="0.6">
<path d="M135.905 118.015C135.76 117.427 135.684 116.825 135.676 116.219C135.676 116.219 140.956 111.767 147.754 111.793C155.85 111.819 160.8 114.367 162.78 117.905C165.921 123.501 166.361 143.323 166.361 143.323C166.361 143.323 146.047 146.456 143.134 142.615C142.628 141.946 143.015 137.225 143.015 137.225C143.015 137.225 140.74 131.259 140.261 126.63C139.592 125.709 138.971 124.754 138.399 123.77C137.676 122.558 137.049 121.292 136.525 119.981" fill="white"/>
<path d="M135.905 118.015C135.76 117.427 135.684 116.825 135.676 116.219C135.676 116.219 140.956 111.767 147.754 111.793C155.85 111.819 160.8 114.367 162.78 117.905C165.921 123.501 166.361 143.323 166.361 143.323C166.361 143.323 146.047 146.456 143.134 142.615C142.628 141.946 143.015 137.225 143.015 137.225C143.015 137.225 140.74 131.259 140.261 126.63C139.592 125.709 138.971 124.754 138.399 123.77C137.676 122.558 137.049 121.292 136.525 119.981" stroke="#263238" stroke-linecap="round" stroke-linejoin="round"/>
</g>
<path d="M143.684 122.779C143.684 122.779 146.786 134.813 146.324 137.462C146.214 138.376 146.366 139.303 146.764 140.133C146.359 140.559 146.098 141.102 146.019 141.685C145.94 142.268 146.047 142.861 146.324 143.38" stroke="#263238" stroke-linecap="round" stroke-linejoin="round"/>
<path d="M151.912 132.736C151.358 132.715 150.82 132.545 150.354 132.243L149.435 128.213C151.259 128.379 153.098 128.25 154.882 127.83L155.867 132.23C155.313 132.385 154.751 132.507 154.182 132.595" stroke="#263238" stroke-linecap="round" stroke-linejoin="round"/>
<path d="M141.479 124.346C141.479 124.346 138.839 113.1 145.501 111.793C152.163 110.486 153.531 113.597 153.139 115.704C152.616 118.516 147.094 125.411 147.094 125.411L143.684 122.771L141.479 124.346Z" fill="#FF5155" stroke="#263238" stroke-linecap="round" stroke-linejoin="round"/>
<path opacity="0.4" d="M141.479 124.346C141.479 124.346 138.839 113.1 145.501 111.793C152.163 110.486 153.531 113.597 153.139 115.704C152.616 118.516 147.094 125.411 147.094 125.411L143.684 122.771L141.479 124.346Z" fill="white" stroke="#263238" stroke-linecap="round" stroke-linejoin="round"/>
<path d="M132.741 159.083C132.741 159.083 137.044 154.115 146.76 150.362C146.76 150.362 144.243 149.592 143.68 148.545" stroke="white" stroke-linecap="round" stroke-linejoin="round"/>
<path d="M127.681 174.285L123.748 188.568" stroke="white" stroke-linecap="round" stroke-linejoin="round"/>
<path d="M158.076 133.124C158.076 133.124 159.836 136.094 167.083 135.821C165.734 134.377 164.028 133.315 162.137 132.741C159.176 131.949 158.076 133.124 158.076 133.124Z" fill="#FF5155" stroke="#263238" stroke-linecap="round" stroke-linejoin="round"/>
<path d="M129.96 134.316C129.96 134.316 131.641 131.711 133.181 131.187C134.721 130.664 139.244 130.62 139.944 130.602C140.644 130.584 153.074 133.744 158.908 135.688L158.398 125.951L166.238 126.572C166.238 126.572 165.922 138.452 164.703 141.598C163.484 144.744 161.737 143.978 158.758 142.693C147.041 137.646 140.177 134.131 139.539 134.333C138.901 134.536 129.96 134.316 129.96 134.316Z" fill="white" stroke="#263238" stroke-linecap="round" stroke-linejoin="round"/>
<path d="M156.44 120.294C156.235 121.101 156.169 121.938 156.246 122.767C156.594 125.812 158.076 133.125 158.076 133.125C158.076 133.125 165.385 134.167 167.083 135.822C167.083 135.822 168.289 126.142 165.834 121.227C163.378 116.312 160.84 115.771 160.84 115.771C159.234 115.375 157.76 116.871 156.946 118.794" fill="#FF5155"/>
<path d="M156.44 120.294C156.235 121.101 156.169 121.938 156.246 122.767C156.594 125.812 158.076 133.125 158.076 133.125C158.076 133.125 165.385 134.167 167.083 135.822C167.083 135.822 168.289 126.142 165.834 121.227C163.378 116.312 160.84 115.771 160.84 115.771C159.234 115.375 157.76 116.871 156.946 118.794" stroke="#263238" stroke-linecap="round" stroke-linejoin="round"/>
<g opacity="0.4">
<path d="M156.44 120.294C156.235 121.101 156.169 121.938 156.246 122.767C156.594 125.812 158.076 133.125 158.076 133.125C158.076 133.125 165.385 134.167 167.083 135.822C167.083 135.822 168.289 126.142 165.834 121.227C163.378 116.312 160.84 115.771 160.84 115.771C159.234 115.375 157.76 116.871 156.946 118.794" fill="white"/>
<path d="M156.44 120.294C156.235 121.101 156.169 121.938 156.246 122.767C156.594 125.812 158.076 133.125 158.076 133.125C158.076 133.125 165.385 134.167 167.083 135.822C167.083 135.822 168.289 126.142 165.834 121.227C163.378 116.312 160.84 115.771 160.84 115.771C159.234 115.375 157.76 116.871 156.946 118.794" stroke="#263238" stroke-linecap="round" stroke-linejoin="round"/>
</g>
<path d="M134.967 124.061C136.061 124.956 137.338 125.602 138.707 125.953" stroke="#263238" stroke-linecap="round" stroke-linejoin="round"/>
<path d="M158.076 124.061C158.076 124.061 160.716 129.05 164.051 130.15" stroke="#263238" stroke-linecap="round" stroke-linejoin="round"/>
<path d="M140.969 162.494C140.969 162.494 141.458 162.864 141.656 164.197" stroke="white" stroke-linecap="round" stroke-linejoin="round"/>
<path d="M139.161 164.197C139.586 164.243 139.997 164.378 140.367 164.591C140.738 164.805 141.059 165.093 141.312 165.438" stroke="white" stroke-linecap="round" stroke-linejoin="round"/>
<path d="M124.605 159.084C124.605 159.084 126.013 159.797 125.71 161.816" stroke="white" stroke-linecap="round" stroke-linejoin="round"/>
<path d="M123.123 160.799C123.123 160.799 125.045 161.938 125.182 162.959" stroke="white" stroke-linecap="round" stroke-linejoin="round"/>
<path d="M145.409 148.488C145.409 148.488 149.69 149.087 150.649 148.488" stroke="white" stroke-linecap="round" stroke-linejoin="round"/>
<path d="M143.684 122.295C143.314 121.247 143.164 120.134 143.244 119.026C143.261 118.65 143.301 118.275 143.362 117.904L142.619 116.725L141.664 115.207L142.768 110.807C142.768 110.807 149.808 112.162 150.336 114.124C150.864 116.087 143.684 122.295 143.684 122.295Z" fill="white"/>
<mask id="mask7_851_13552" style="mask-type:luminance" maskUnits="userSpaceOnUse" x="141" y="110" width="10" height="13">
<path d="M143.684 122.295C143.314 121.247 143.164 120.134 143.244 119.026C143.261 118.65 143.301 118.275 143.362 117.904L142.619 116.725L141.664 115.207L142.768 110.807C142.768 110.807 149.808 112.162 150.336 114.124C150.864 116.087 143.684 122.295 143.684 122.295Z" fill="white"/>
</mask>
<g mask="url(#mask7_851_13552)">
<path opacity="0.2" d="M143.235 119.043C143.252 118.667 143.292 118.292 143.353 117.921L142.61 116.742C143.95 116.534 145.17 115.85 146.046 114.814C146.083 115.726 145.831 116.625 145.326 117.385C144.821 118.144 144.089 118.724 143.235 119.043Z" fill="black" fill-opacity="0.7"/>
</g>
<path d="M143.684 122.295C143.314 121.247 143.164 120.134 143.244 119.026C143.261 118.65 143.301 118.275 143.362 117.904L142.619 116.725L141.664 115.207L142.768 110.807C142.768 110.807 149.808 112.162 150.336 114.124C150.864 116.087 143.684 122.295 143.684 122.295Z" stroke="#263238" stroke-linecap="round" stroke-linejoin="round"/>
<path d="M148.102 111.177C150.302 105.457 148.841 95.7198 138.281 97.5854C132.086 98.6854 131.338 106.174 133.406 109.501C135.474 112.827 133.278 112.933 136.389 115.397C137.652 116.395 138.668 118.089 140.173 118.199C141.964 118.323 144.256 116.629 145.968 114.798" fill="white"/>
<path d="M148.102 111.177C150.302 105.457 148.841 95.7198 138.281 97.5854C132.086 98.6854 131.338 106.174 133.406 109.501C135.474 112.827 133.278 112.933 136.389 115.397C137.652 116.395 138.668 118.089 140.173 118.199C141.964 118.323 144.256 116.629 145.968 114.798" stroke="#263238" stroke-linecap="round" stroke-linejoin="round"/>
<path d="M137.695 109.501C137.695 109.501 139.253 108.084 141.105 108.669" stroke="#263238" stroke-linecap="round" stroke-linejoin="round"/>
<path d="M134.778 109.501C134.569 109.133 134.279 108.819 133.928 108.582C133.578 108.346 133.178 108.193 132.759 108.137" stroke="#263238" stroke-linecap="round" stroke-linejoin="round"/>
<path d="M135.808 111.564C135.808 111.564 135.583 112.704 135.289 113.857C134.994 115.01 137.137 114.38 137.049 114.204" fill="white"/>
<path d="M135.808 111.564C135.808 111.564 135.583 112.704 135.289 113.857C134.994 115.01 137.137 114.38 137.049 114.204" stroke="#263238" stroke-linecap="round" stroke-linejoin="round"/>
<path d="M138.153 115.643C139.062 115.383 139.87 114.854 140.472 114.125" stroke="#263238" stroke-linecap="round" stroke-linejoin="round"/>
<path d="M139.865 110.948C139.896 111.004 139.916 111.065 139.924 111.128C139.931 111.191 139.927 111.255 139.909 111.316C139.892 111.378 139.863 111.435 139.824 111.485C139.784 111.535 139.736 111.577 139.68 111.608C139.567 111.67 139.435 111.684 139.311 111.649C139.188 111.614 139.083 111.531 139.02 111.419C138.98 111.351 138.958 111.273 138.958 111.194C138.927 111.139 138.907 111.078 138.899 111.015C138.892 110.952 138.897 110.887 138.914 110.826C138.931 110.765 138.96 110.707 139 110.657C139.039 110.607 139.088 110.566 139.143 110.534C139.256 110.473 139.389 110.458 139.512 110.494C139.636 110.529 139.74 110.612 139.803 110.724C139.844 110.792 139.865 110.869 139.865 110.948Z" fill="#263238"/>
<path d="M135.165 110.85C135.253 111.167 135.192 111.466 135.025 111.51C134.857 111.554 134.651 111.334 134.585 111.013C134.519 110.692 134.563 110.397 134.73 110.353C134.897 110.309 135.069 110.529 135.165 110.85Z" fill="#263238"/>
<path d="M141.59 103.608C141.59 103.608 139.953 107.89 135.905 107.793C135.905 107.793 137.308 106.724 137.696 105.703C137.696 105.703 134.58 108.783 131.47 107.216C128.359 105.65 129.886 98.3636 134.66 95.486C139.434 92.6084 144.318 93.3784 145.972 96.1284C145.972 96.1284 149.316 95.8204 150.79 100.735C152.11 105.135 149.998 111.806 147.934 111.88C144.736 111.999 144.093 108.528 144.093 108.528C142.772 107.184 141.898 105.467 141.59 103.608Z" fill="#263238" stroke="#263238" stroke-linecap="round" stroke-linejoin="round"/>
<path d="M145.096 111.199C145.096 111.199 144.995 107.16 147.296 107.648C149.598 108.137 147.93 112.805 146.201 112.757" fill="white"/>
<path d="M145.096 111.199C145.096 111.199 144.995 107.16 147.296 107.648C149.598 108.137 147.93 112.805 146.201 112.757" stroke="#263238" stroke-linecap="round" stroke-linejoin="round"/>
<path d="M137.99 133.877H102.513C102.117 133.877 101.796 134.198 101.796 134.594V135.831C101.796 136.227 102.117 136.548 102.513 136.548H137.99C138.386 136.548 138.707 136.227 138.707 135.831V134.594C138.707 134.198 138.386 133.877 137.99 133.877Z" fill="#FF5155" stroke="#263238" stroke-linecap="round" stroke-linejoin="round"/>
<path d="M50.1529 187.623H35.1885L36.7549 201.303H48.5865L50.1529 187.623Z" fill="#263238" stroke="#263238" stroke-linecap="round" stroke-linejoin="round"/>
<path d="M51.9259 178.102C51.9259 178.102 45.3919 178.616 45.1191 183.439C45.1191 183.439 51.7367 186.484 51.9259 178.102Z" fill="#FF5155" stroke="#263238" stroke-linecap="round" stroke-linejoin="round"/>
<path d="M38.9987 179.298C38.9987 179.298 35.3467 174.361 29.4463 176.891C29.4463 176.891 33.0499 182.845 38.9987 179.298Z" fill="#FF5155" stroke="#263238" stroke-linecap="round" stroke-linejoin="round"/>
<path d="M29.948 163.712C29.948 163.712 28.8964 173.207 37.5424 170.594C37.5424 170.594 34.7968 163.611 29.948 163.712Z" fill="#FF5155" stroke="#263238" stroke-linecap="round" stroke-linejoin="round"/>
<path d="M40.5651 158.424C40.5651 158.424 33.7275 162.111 38.7567 167.708C38.7523 167.708 43.5439 163.708 40.5651 158.424Z" fill="#FF5155" stroke="#263238" stroke-linecap="round" stroke-linejoin="round"/>
<path d="M48.9736 166.911C48.9736 166.911 41.5376 166.159 41.5376 173.04C41.5376 173.04 48.9736 173.335 48.9736 166.911Z" fill="#FF5155" stroke="#263238" stroke-linecap="round" stroke-linejoin="round"/>
<path d="M41.9644 193.259C41.9644 193.259 45.3524 186.148 42.1008 178.906C38.8492 171.663 37.7448 165.561 39.4608 161.262" stroke="#263238" stroke-linecap="round" stroke-linejoin="round"/>
<path d="M46.5313 168.764C46.5313 168.764 42.0741 170.524 40.5649 175.122" stroke="#263238" stroke-linecap="round" stroke-linejoin="round"/>
<path d="M32.2974 167.51C32.2974 167.51 34.8714 171.03 39.2318 170.638" stroke="#263238" stroke-linecap="round" stroke-linejoin="round"/>
<path d="M32.2974 177.902C32.2974 177.902 39.4254 179.953 42.259 179.284" stroke="#263238" stroke-linecap="round" stroke-linejoin="round"/>
<path d="M49.8053 180.27C49.8053 180.27 46.6153 183.79 43.4121 183.715" stroke="#263238" stroke-linecap="round" stroke-linejoin="round"/>
<path d="M50.7951 187.318H34.5459V189.25H50.7951V187.318Z" fill="#263238" stroke="#263238" stroke-linecap="round" stroke-linejoin="round"/>
<path d="M168.711 174.924C164.912 177.405 161.725 180.715 159.387 184.604C155.511 191.072 152.44 200.171 157.209 201.324L161.746 201.152L170.475 198.156L169.56 196.396C169.56 196.396 161.917 200.444 160.611 200.444C159.304 200.444 157.601 200.769 156.884 200.246C156.167 199.722 159.396 187.961 166.309 184.041C173.221 180.12 168.711 174.924 168.711 174.924Z" fill="#FF5155"/>
<mask id="mask8_851_13552" style="mask-type:luminance" maskUnits="userSpaceOnUse" x="154" y="174" width="17" height="28">
<path d="M168.711 174.924C164.912 177.405 161.725 180.715 159.387 184.604C155.511 191.072 152.44 200.171 157.209 201.324L161.746 201.152L170.475 198.156L169.56 196.396C169.56 196.396 161.917 200.444 160.611 200.444C159.304 200.444 157.601 200.769 156.884 200.246C156.167 199.722 159.396 187.961 166.309 184.041C173.221 180.12 168.711 174.924 168.711 174.924Z" fill="white"/>
</mask>
<g mask="url(#mask8_851_13552)">
<path opacity="0.5" d="M168.711 174.924C164.912 177.405 161.725 180.715 159.387 184.604C155.511 191.072 152.44 200.171 157.209 201.324L161.746 201.152L170.475 198.156L169.56 196.396C169.56 196.396 161.917 200.444 160.611 200.444C159.304 200.444 157.601 200.769 156.884 200.246C156.167 199.722 159.396 187.961 166.309 184.041C173.221 180.12 168.711 174.924 168.711 174.924Z" fill="black" fill-opacity="0.7"/>
</g>
<path d="M168.711 174.924C164.912 177.405 161.725 180.715 159.387 184.604C155.511 191.072 152.44 200.171 157.209 201.324L161.746 201.152L170.475 198.156L169.56 196.396C169.56 196.396 161.917 200.444 160.611 200.444C159.304 200.444 157.601 200.769 156.884 200.246C156.167 199.722 159.396 187.961 166.309 184.041C173.221 180.12 168.711 174.924 168.711 174.924Z" stroke="#263238" stroke-linecap="round" stroke-linejoin="round"/>
<path d="M173.679 170.683C173.679 170.683 173.679 168.787 176.552 168.527C179.425 168.267 179.834 171.035 179.834 171.035H178.844C178.844 171.035 178.866 169.376 176.754 169.249C174.642 169.121 174.722 171.035 174.722 171.035L173.679 170.683Z" fill="#FF5155" stroke="#263238" stroke-linecap="round" stroke-linejoin="round"/>
<path d="M169.428 201.325C163.352 201.325 164.504 174.076 165.204 172.725C165.904 171.374 183.534 170.701 185.272 171.273C187.01 171.845 193.98 198.993 190.134 201.162L169.428 201.325Z" fill="#FF5155"/>
<mask id="mask9_851_13552" style="mask-type:luminance" maskUnits="userSpaceOnUse" x="164" y="171" width="28" height="31">
<path d="M169.428 201.325C163.352 201.325 164.504 174.076 165.204 172.725C165.904 171.374 183.534 170.701 185.272 171.273C187.01 171.845 193.98 198.993 190.134 201.162L169.428 201.325Z" fill="white"/>
</mask>
<g mask="url(#mask9_851_13552)">
<path opacity="0.2" d="M169.428 201.325C163.352 201.325 164.504 174.076 165.204 172.725C165.904 171.374 183.534 170.701 185.272 171.273C187.01 171.845 193.98 198.993 190.134 201.162L169.428 201.325Z" fill="black" fill-opacity="0.7"/>
</g>
<path d="M169.428 201.325C163.352 201.325 164.504 174.076 165.204 172.725C165.904 171.374 183.534 170.701 185.272 171.273C187.01 171.845 193.98 198.993 190.134 201.162L169.428 201.325Z" stroke="#263238" stroke-linecap="round" stroke-linejoin="round"/>
<path d="M165.204 172.695C167.404 173.166 168.671 182.084 171.633 184.355C174.594 186.625 188.555 186.137 190.135 184.355C191.714 182.573 188.625 172.567 186.381 171.036C184.137 169.505 182.54 170.992 176.226 170.292C166.867 169.25 165.204 172.695 165.204 172.695Z" fill="#FF5155" stroke="#263238" stroke-linecap="round" stroke-linejoin="round"/>
<path d="M181.229 177.82L183.816 179.932C183.852 179.962 183.881 179.998 183.902 180.04C183.923 180.081 183.936 180.126 183.939 180.172C183.943 180.218 183.938 180.265 183.923 180.309C183.909 180.353 183.886 180.394 183.856 180.429L181.841 182.603C181.776 182.666 181.689 182.702 181.599 182.702C181.508 182.702 181.421 182.666 181.357 182.603L178.783 180.204C178.72 180.14 178.685 180.053 178.685 179.963C178.685 179.872 178.72 179.785 178.783 179.72L180.776 177.868C180.832 177.806 180.91 177.767 180.993 177.758C181.077 177.749 181.161 177.771 181.229 177.82Z" fill="#FF5155"/>
<mask id="mask10_851_13552" style="mask-type:luminance" maskUnits="userSpaceOnUse" x="178" y="177" width="6" height="6">
<path d="M181.229 177.82L183.816 179.932C183.852 179.962 183.881 179.998 183.902 180.04C183.923 180.081 183.936 180.126 183.939 180.172C183.943 180.218 183.938 180.265 183.923 180.309C183.909 180.353 183.886 180.394 183.856 180.429L181.841 182.603C181.776 182.666 181.689 182.702 181.599 182.702C181.508 182.702 181.421 182.666 181.357 182.603L178.783 180.204C178.72 180.14 178.685 180.053 178.685 179.963C178.685 179.872 178.72 179.785 178.783 179.72L180.776 177.868C180.832 177.806 180.91 177.767 180.993 177.758C181.077 177.749 181.161 177.771 181.229 177.82Z" fill="white"/>
</mask>
<g mask="url(#mask10_851_13552)">
<path opacity="0.2" d="M181.229 177.82L183.816 179.932C183.852 179.962 183.881 179.998 183.902 180.04C183.923 180.081 183.936 180.126 183.939 180.172C183.943 180.218 183.938 180.265 183.923 180.309C183.909 180.353 183.886 180.394 183.856 180.429L181.841 182.603C181.776 182.666 181.689 182.702 181.599 182.702C181.508 182.702 181.421 182.666 181.357 182.603L178.783 180.204C178.72 180.14 178.685 180.053 178.685 179.963C178.685 179.872 178.72 179.785 178.783 179.72L180.776 177.868C180.832 177.806 180.91 177.767 180.993 177.758C181.077 177.749 181.161 177.771 181.229 177.82Z" fill="black" fill-opacity="0.7"/>
</g>
<path d="M181.229 177.82L183.816 179.932C183.852 179.962 183.881 179.998 183.902 180.04C183.923 180.081 183.936 180.126 183.939 180.172C183.943 180.218 183.938 180.265 183.923 180.309C183.909 180.353 183.886 180.394 183.856 180.429L181.841 182.603C181.776 182.666 181.689 182.702 181.599 182.702C181.508 182.702 181.421 182.666 181.357 182.603L178.783 180.204C178.72 180.14 178.685 180.053 178.685 179.963C178.685 179.872 178.72 179.785 178.783 179.72L180.776 177.868C180.832 177.806 180.91 177.767 180.993 177.758C181.077 177.749 181.161 177.771 181.229 177.82Z" stroke="#263238" stroke-linecap="round" stroke-linejoin="round"/>
<path d="M172.697 188.912C172.697 188.912 184.392 189.876 190.134 188.389C190.903 188.993 191.474 189.813 191.776 190.743C192.299 192.309 193.39 197.668 190.134 199.041C186.878 200.414 175.174 200.15 173.612 198.601C172.05 197.052 172.697 188.912 172.697 188.912Z" fill="#FF5155"/>
<mask id="mask11_851_13552" style="mask-type:luminance" maskUnits="userSpaceOnUse" x="172" y="188" width="21" height="12">
<path d="M172.697 188.912C172.697 188.912 184.392 189.876 190.134 188.389C190.903 188.993 191.474 189.813 191.776 190.743C192.299 192.309 193.39 197.668 190.134 199.041C186.878 200.414 175.174 200.15 173.612 198.601C172.05 197.052 172.697 188.912 172.697 188.912Z" fill="white"/>
</mask>
<g mask="url(#mask11_851_13552)">
<path opacity="0.4" d="M172.697 188.912C172.697 188.912 184.392 189.876 190.134 188.389C190.903 188.993 191.474 189.813 191.776 190.743C192.299 192.309 193.39 197.668 190.134 199.041C186.878 200.414 175.174 200.15 173.612 198.601C172.05 197.052 172.697 188.912 172.697 188.912Z" fill="black" fill-opacity="0.7"/>
</g>
<path d="M172.697 188.912C172.697 188.912 184.392 189.876 190.134 188.389C190.903 188.993 191.474 189.813 191.776 190.743C192.299 192.309 193.39 197.668 190.134 199.041C186.878 200.414 175.174 200.15 173.612 198.601C172.05 197.052 172.697 188.912 172.697 188.912Z" stroke="#263238" stroke-linecap="round" stroke-linejoin="round"/>
<path d="M172.697 188.912C172.697 188.912 174.07 192.613 174.787 193.18C175.504 193.748 190.698 193.748 192.387 192.375C194.077 191.002 191.762 188.521 190.139 188.389C190.134 188.389 179.491 189.629 172.697 188.912Z" fill="#FF5155" stroke="#263238" stroke-linecap="round" stroke-linejoin="round"/>
<path d="M167.796 188.125C167.796 188.125 168.187 195.9 168.97 197.664C168.389 197.968 167.743 198.126 167.087 198.126C166.431 198.126 165.785 197.968 165.204 197.664C163.224 196.617 163.55 189.92 163.941 189.938C164.333 189.955 167.796 188.125 167.796 188.125Z" fill="#FF5155"/>
<mask id="mask12_851_13552" style="mask-type:luminance" maskUnits="userSpaceOnUse" x="163" y="188" width="6" height="11">
<path d="M167.796 188.125C167.796 188.125 168.187 195.9 168.97 197.664C168.389 197.968 167.743 198.126 167.087 198.126C166.431 198.126 165.785 197.968 165.204 197.664C163.224 196.617 163.55 189.92 163.941 189.938C164.333 189.955 167.796 188.125 167.796 188.125Z" fill="white"/>
</mask>
<g mask="url(#mask12_851_13552)">
<path opacity="0.4" d="M167.796 188.125C167.796 188.125 168.187 195.9 168.97 197.664C168.389 197.968 167.743 198.126 167.087 198.126C166.431 198.126 165.785 197.968 165.204 197.664C163.224 196.617 163.55 189.92 163.941 189.938C164.333 189.955 167.796 188.125 167.796 188.125Z" fill="black" fill-opacity="0.7"/>
</g>
<path d="M167.796 188.125C167.796 188.125 168.187 195.9 168.97 197.664C168.389 197.968 167.743 198.126 167.087 198.126C166.431 198.126 165.785 197.968 165.204 197.664C163.224 196.617 163.55 189.92 163.941 189.938C164.333 189.955 167.796 188.125 167.796 188.125Z" stroke="#263238" stroke-linecap="round" stroke-linejoin="round"/>
<path d="M167.796 188.125L164.852 188.715C164.852 188.715 162.045 190.871 163.286 191.588C164.527 192.305 167.725 190.545 167.796 188.125Z" fill="#FF5155" stroke="#263238" stroke-linecap="round" stroke-linejoin="round"/>
</svg>
