<svg width="15" height="21" viewBox="0 0 15 21" fill="none" xmlns="http://www.w3.org/2000/svg">
<path d="M1.88574 19.1035V17.1035C1.88574 16.0426 2.30717 15.0252 3.05731 14.2751C3.80746 13.5249 4.82488 13.1035 5.88574 13.1035H9.88574C10.9466 13.1035 11.964 13.5249 12.7142 14.2751C13.4643 15.0252 13.8857 16.0426 13.8857 17.1035V19.1035M3.88574 5.10352C3.88574 6.16438 4.30717 7.1818 5.05731 7.93194C5.80746 8.68209 6.82488 9.10352 7.88574 9.10352C8.94661 9.10352 9.96402 8.68209 10.7142 7.93194C11.4643 7.1818 11.8857 6.16438 11.8857 5.10352C11.8857 4.04265 11.4643 3.02523 10.7142 2.27509C9.96402 1.52494 8.94661 1.10352 7.88574 1.10352C6.82488 1.10352 5.80746 1.52494 5.05731 2.27509C4.30717 3.02523 3.88574 4.04265 3.88574 5.10352Z" stroke="white" stroke-width="2" stroke-linecap="round" stroke-linejoin="round"/>
</svg>
