<svg width="16" height="17" viewBox="0 0 16 17" fill="none" xmlns="http://www.w3.org/2000/svg">
<path d="M11.3859 1.35352C11.3859 1.1546 11.4649 0.963838 11.6056 0.823185C11.7462 0.682533 11.937 0.603516 12.1359 0.603516H14.6359C14.8348 0.603516 15.0256 0.682533 15.1662 0.823185C15.3069 0.963838 15.3859 1.1546 15.3859 1.35352V3.85352C15.3859 4.05243 15.3069 4.24319 15.1662 4.38385C15.0256 4.5245 14.8348 4.60352 14.6359 4.60352C14.437 4.60352 14.2462 4.5245 14.1056 4.38385C13.9649 4.24319 13.8859 4.05243 13.8859 3.85352V3.16352L9.4159 7.63352C9.27527 7.77397 9.08465 7.85286 8.8859 7.85286C8.68715 7.85286 8.49652 7.77397 8.3559 7.63352L5.8859 5.16352L1.6659 9.38352C1.59723 9.4572 1.51443 9.5163 1.42243 9.5573C1.33043 9.59829 1.23112 9.62033 1.13042 9.62211C1.02972 9.62388 0.929687 9.60536 0.836298 9.56764C0.74291 9.52992 0.658076 9.47377 0.586857 9.40255C0.515639 9.33134 0.459494 9.2465 0.421773 9.15311C0.384052 9.05972 0.365527 8.9597 0.367304 8.85899C0.369081 8.75829 0.391123 8.65898 0.432115 8.56698C0.473107 8.47498 0.532209 8.39218 0.605896 8.32352L5.3559 3.57352C5.49652 3.43306 5.68715 3.35418 5.8859 3.35418C6.08465 3.35418 6.27527 3.43306 6.4159 3.57352L8.8859 6.04352L12.8259 2.10352H12.1359C11.937 2.10352 11.7462 2.0245 11.6056 1.88385C11.4649 1.74319 11.3859 1.55243 11.3859 1.35352ZM1.1359 12.6035C1.33481 12.6035 1.52557 12.6825 1.66623 12.8232C1.80688 12.9638 1.8859 13.1546 1.8859 13.3535V15.8535C1.8859 16.0524 1.80688 16.2432 1.66623 16.3838C1.52557 16.5245 1.33481 16.6035 1.1359 16.6035C0.936983 16.6035 0.746218 16.5245 0.605566 16.3838C0.464913 16.2432 0.385896 16.0524 0.385896 15.8535V13.3535C0.385896 13.1546 0.464913 12.9638 0.605566 12.8232C0.746218 12.6825 0.936983 12.6035 1.1359 12.6035ZM5.8859 10.3535C5.8859 10.1546 5.80688 9.96384 5.66623 9.82319C5.52557 9.68253 5.33481 9.60352 5.1359 9.60352C4.93698 9.60352 4.74622 9.68253 4.60557 9.82319C4.46491 9.96384 4.3859 10.1546 4.3859 10.3535V15.8535C4.3859 16.0524 4.46491 16.2432 4.60557 16.3838C4.74622 16.5245 4.93698 16.6035 5.1359 16.6035C5.33481 16.6035 5.52557 16.5245 5.66623 16.3838C5.80688 16.2432 5.8859 16.0524 5.8859 15.8535V10.3535ZM9.1359 11.6035C9.33481 11.6035 9.52557 11.6825 9.66623 11.8232C9.80688 11.9638 9.8859 12.1546 9.8859 12.3535V15.8535C9.8859 16.0524 9.80688 16.2432 9.66623 16.3838C9.52557 16.5245 9.33481 16.6035 9.1359 16.6035C8.93698 16.6035 8.74622 16.5245 8.60557 16.3838C8.46491 16.2432 8.3859 16.0524 8.3859 15.8535V12.3535C8.3859 12.1546 8.46491 11.9638 8.60557 11.8232C8.74622 11.6825 8.93698 11.6035 9.1359 11.6035ZM13.8859 8.35352C13.8859 8.1546 13.8069 7.96384 13.6662 7.82319C13.5256 7.68253 13.3348 7.60352 13.1359 7.60352C12.937 7.60352 12.7462 7.68253 12.6056 7.82319C12.4649 7.96384 12.3859 8.1546 12.3859 8.35352V15.8535C12.3859 16.0524 12.4649 16.2432 12.6056 16.3838C12.7462 16.5245 12.937 16.6035 13.1359 16.6035C13.3348 16.6035 13.5256 16.5245 13.6662 16.3838C13.8069 16.2432 13.8859 16.0524 13.8859 15.8535V8.35352Z" fill="white"/>
</svg>
