<svg width="221" height="221" viewBox="0 0 221 221" fill="none" xmlns="http://www.w3.org/2000/svg">
<g clip-path="url(#clip0_851_13391)">
<g clip-path="url(#clip1_851_13391)">
<g clip-path="url(#clip2_851_13391)">
<path d="M110.821 198.452C163.017 198.452 205.331 173.28 205.331 142.229C205.331 111.178 163.017 86.0059 110.821 86.0059C58.6241 86.0059 16.3105 111.178 16.3105 142.229C16.3105 173.28 58.6241 198.452 110.821 198.452Z" fill="#F5F5F5"/>
<path d="M161.829 139.125L192.984 121.153C193.254 121.063 193.487 120.89 193.653 120.66C193.819 120.429 193.908 120.153 193.908 119.869C193.908 119.585 193.819 119.308 193.653 119.078C193.487 118.847 193.254 118.675 192.984 118.584L148.027 92.5741C147.337 92.2237 146.574 92.041 145.8 92.041C145.026 92.041 144.263 92.2237 143.572 92.5741L112.41 110.546C112.141 110.637 111.907 110.809 111.742 111.04C111.576 111.27 111.487 111.547 111.487 111.831C111.487 112.115 111.576 112.391 111.742 112.622C111.907 112.852 112.141 113.025 112.41 113.115L157.368 139.124C158.059 139.476 158.824 139.659 159.599 139.659C160.374 139.659 161.138 139.476 161.829 139.125Z" fill="#FF5155"/>
<path d="M82.5435 182.982L35.8585 156.068C34.5445 155.31 34.5445 154.083 35.8585 153.32L100.81 115.82C101.548 115.445 102.364 115.25 103.192 115.25C104.02 115.25 104.836 115.445 105.575 115.82L152.26 142.731C153.574 143.489 153.574 144.716 152.26 145.479L87.3045 182.979C86.5668 183.353 85.7512 183.548 84.924 183.548C84.0969 183.548 83.2813 183.353 82.5435 182.979V182.982Z" fill="#FF5155"/>
<path d="M47.4533 181.513C54.7297 181.513 60.6283 178.107 60.6283 173.905C60.6283 169.703 54.7297 166.297 47.4533 166.297C40.177 166.297 34.2783 169.703 34.2783 173.905C34.2783 178.107 40.177 181.513 47.4533 181.513Z" fill="#FF5155"/>
<path d="M107.858 178.697L107.902 178.645L110.253 176.064V176.044C110.266 176.028 110.281 176.013 110.297 176L110.321 175.972C110.53 175.807 110.789 175.717 111.056 175.717C111.322 175.717 111.581 175.807 111.79 175.972C112.325 176.32 112.771 176.789 113.091 177.341C113.411 177.893 113.596 178.512 113.632 179.149C113.669 179.409 113.619 179.674 113.49 179.903C113.362 180.132 113.162 180.312 112.921 180.416H112.889L112.758 180.444H112.726L109.326 181.187C109.117 181.223 108.903 181.178 108.726 181.06C108.42 180.86 108.166 180.591 107.983 180.274C107.8 179.958 107.694 179.603 107.674 179.237C107.673 179.043 107.736 178.853 107.853 178.697H107.858Z" fill="#FF5155"/>
<path d="M162.877 154.923L113.333 183.557L106.471 184.957C106.432 184.965 106.391 184.962 106.354 184.947C106.317 184.933 106.285 184.908 106.261 184.876C106.237 184.844 106.223 184.806 106.22 184.766C106.217 184.726 106.226 184.686 106.245 184.651L108.393 180.708L157.941 152.07C159.296 151.286 163.938 154.313 162.877 154.923Z" fill="#FF5155"/>
<path d="M134.686 178.314C135.186 179.664 136.624 180.506 139.03 180.82L181.947 155.828L186.402 151.313C186.457 151.258 186.492 151.186 186.501 151.108C186.51 151.031 186.493 150.953 186.452 150.886C186.411 150.82 186.349 150.77 186.276 150.743C186.203 150.717 186.122 150.716 186.049 150.741L177.849 153.457L134.686 178.314Z" fill="#FF5155"/>
<path d="M186.564 119.902L158.931 135.507L116.495 111.154L144.124 95.5488L186.564 119.902Z" fill="#FF5155"/>
<path opacity="0.6" d="M186.564 119.902L158.931 135.507L116.495 111.154L144.124 95.5488L186.564 119.902Z" fill="black"/>
<path d="M158.629 134.367L185.329 119.21C184.666 117.328 184.714 116.756 185.468 114.25L158.927 129.268C158.927 129.268 158.447 129.217 158.629 134.367Z" fill="#F5F5F5"/>
<path d="M160.225 127.196C159.516 127.654 158.925 128.273 158.502 129.003C158.078 129.733 157.833 130.553 157.787 131.396V134.696C157.787 136.241 158.879 136.868 160.225 136.096L186.56 121.134V119.919L160.56 134.611C159.766 135.072 159.095 134.698 159.099 133.769L159.119 130.846C159.148 130.34 159.296 129.848 159.552 129.41C159.807 128.972 160.162 128.6 160.588 128.325L186.557 113.633V112.258L160.225 127.196Z" fill="#FF5155"/>
<path opacity="0.5" d="M160.225 127.196C159.516 127.654 158.925 128.273 158.502 129.003C158.078 129.733 157.833 130.553 157.787 131.396V134.696C157.787 136.241 158.879 136.868 160.225 136.096L186.56 121.134V119.919L160.56 134.611C159.766 135.072 159.095 134.698 159.099 133.769L159.119 130.846C159.148 130.34 159.296 129.848 159.552 129.41C159.807 128.972 160.162 128.6 160.588 128.325L186.557 113.633V112.258L160.225 127.196Z" fill="black"/>
<path d="M186.559 112.238L144.123 87.8848L117.792 102.843C117.083 103.301 116.492 103.92 116.068 104.65C115.644 105.38 115.398 106.2 115.35 107.043V110.327C115.319 110.628 115.369 110.932 115.495 111.208C115.62 111.484 115.817 111.721 116.065 111.895L158.501 136.244C158.253 136.071 158.055 135.835 157.93 135.559C157.804 135.284 157.754 134.98 157.786 134.679V131.391C157.834 130.548 158.079 129.729 158.503 128.999C158.926 128.269 159.516 127.65 160.224 127.191L186.559 112.238Z" fill="#FF5155"/>
<path opacity="0.35" d="M186.559 112.238L144.123 87.8848L117.792 102.843C117.083 103.301 116.492 103.92 116.068 104.65C115.644 105.38 115.398 106.2 115.35 107.043V110.327C115.319 110.628 115.369 110.932 115.495 111.208C115.62 111.484 115.817 111.721 116.065 111.895L158.501 136.244C158.253 136.071 158.055 135.835 157.93 135.559C157.804 135.284 157.754 134.98 157.786 134.679V131.391C157.834 130.548 158.079 129.729 158.503 128.999C158.926 128.269 159.516 127.65 160.224 127.191L186.559 112.238Z" fill="black"/>
<path d="M158.497 129.001C158.061 129.722 157.814 130.542 157.782 131.384V134.701C157.75 135.002 157.8 135.306 157.926 135.581C158.051 135.857 158.249 136.093 158.497 136.266L116.065 111.901C115.817 111.728 115.619 111.491 115.493 111.215C115.367 110.939 115.318 110.634 115.35 110.333V107.049C115.382 106.207 115.629 105.387 116.065 104.666L158.497 129.001Z" fill="#FF5155"/>
<path opacity="0.45" d="M158.497 129.001C158.061 129.722 157.814 130.542 157.782 131.384V134.701C157.75 135.002 157.8 135.306 157.926 135.581C158.051 135.857 158.249 136.093 158.497 136.266L116.065 111.901C115.817 111.728 115.619 111.491 115.493 111.215C115.367 110.939 115.318 110.634 115.35 110.333V107.049C115.382 106.207 115.629 105.387 116.065 104.666L158.497 129.001Z" fill="black"/>
<path d="M121.8 107.91C121.006 111.345 121.006 112.675 121.8 115.204L123.817 116.37C123.023 113.852 123.023 112.51 123.817 109.076L121.8 107.91Z" fill="#FF5155"/>
<path d="M149.632 123.904C148.838 127.339 148.838 128.637 149.632 131.155L151.653 132.322C150.859 129.801 150.859 128.502 151.653 125.071L149.632 123.904Z" fill="#FF5155"/>
<path d="M192.139 111.828L164.506 127.433L122.069 103.08L149.698 87.4746L192.139 111.828Z" fill="#FF5155"/>
<path opacity="0.4" d="M192.139 111.828L164.506 127.433L122.069 103.08L149.698 87.4746L192.139 111.828Z" fill="black"/>
<path d="M164.204 126.29L190.904 111.121C190.241 109.239 190.288 108.397 191.039 105.891L164.502 120.905C164.502 120.905 164.029 121.14 164.204 126.29Z" fill="#F5F5F5"/>
<path d="M165.799 118.848C165.09 119.306 164.5 119.926 164.075 120.656C163.651 121.385 163.405 122.205 163.357 123.048V126.602C163.357 128.147 164.449 128.774 165.799 128.002L192.134 113.044V111.829L166.134 126.521C165.34 126.986 164.669 126.608 164.669 125.683L164.693 122.506C164.722 122 164.87 121.508 165.124 121.07C165.379 120.632 165.733 120.26 166.158 119.985L192.131 105.293V103.914L165.799 118.848Z" fill="#FF5155"/>
<path opacity="0.25" d="M165.799 118.848C165.09 119.306 164.5 119.926 164.075 120.656C163.651 121.385 163.405 122.205 163.357 123.048V126.602C163.357 128.147 164.449 128.774 165.799 128.002L192.134 113.044V111.829L166.134 126.521C165.34 126.986 164.669 126.608 164.669 125.683L164.693 122.506C164.722 122 164.87 121.508 165.124 121.07C165.379 120.632 165.733 120.26 166.158 119.985L192.131 105.293V103.914L165.799 118.848Z" fill="black"/>
<path d="M192.135 103.894L149.699 79.541L123.364 94.499C122.655 94.9571 122.064 95.5764 121.64 96.3064C121.217 97.0364 120.972 97.8562 120.926 98.699V102.273C120.893 102.574 120.943 102.878 121.069 103.153C121.194 103.429 121.392 103.665 121.641 103.838L164.076 128.192C163.827 128.019 163.629 127.782 163.503 127.506C163.378 127.23 163.328 126.925 163.361 126.624V123.07C163.407 122.227 163.652 121.407 164.075 120.677C164.499 119.947 165.09 119.328 165.799 118.87L192.135 103.894Z" fill="#FF5155"/>
<path d="M164.075 120.66C163.638 121.38 163.391 122.2 163.36 123.043V126.599C163.329 126.9 163.379 127.204 163.505 127.48C163.63 127.756 163.827 127.993 164.075 128.167L121.643 103.822C121.395 103.649 121.197 103.413 121.072 103.137C120.946 102.862 120.896 102.558 120.928 102.257V98.6828C120.96 97.8408 121.206 97.0207 121.643 96.3008L164.075 120.66Z" fill="#FF5155"/>
<path opacity="0.15" d="M164.075 120.66C163.638 121.38 163.391 122.2 163.36 123.043V126.599C163.329 126.9 163.379 127.204 163.505 127.48C163.63 127.756 163.827 127.993 164.075 128.167L121.643 103.822C121.395 103.649 121.197 103.413 121.072 103.137C120.946 102.862 120.896 102.558 120.928 102.257V98.6828C120.96 97.8408 121.206 97.0207 121.643 96.3008L164.075 120.66Z" fill="black"/>
<path d="M127.37 99.5625C126.576 102.997 126.576 104.613 127.37 107.13L129.391 108.298C128.597 105.777 128.597 104.163 129.391 100.729L127.37 99.5625Z" fill="#FF5155"/>
<path d="M155.206 115.576C154.412 119.011 154.412 120.567 155.206 123.085L157.227 124.252C156.433 121.734 156.433 120.166 157.227 116.731L155.206 115.576Z" fill="#FF5155"/>
<g opacity="0.4">
<path d="M127.37 99.5625C126.576 102.997 126.576 104.613 127.37 107.13L129.391 108.298C128.597 105.777 128.597 104.163 129.391 100.729L127.37 99.5625Z" fill="white"/>
<path d="M155.206 115.576C154.412 119.011 154.412 120.567 155.206 123.085L157.227 124.252C156.433 121.734 156.433 120.166 157.227 116.731L155.206 115.576Z" fill="white"/>
</g>
<path d="M42.7207 154.715L85.6417 179.1L147.897 143.362L104.98 118.977L42.7207 154.715Z" fill="#FF5155"/>
<path opacity="0.4" d="M42.7207 154.715L85.6417 179.1L147.897 143.362L104.98 118.977L42.7207 154.715Z" fill="black"/>
<path d="M85.9627 177.878L44.0347 153.958C44.7457 151.945 44.6897 151.043 43.8877 148.367L85.6407 172.125C85.6407 172.125 86.1577 172.375 85.9627 177.878Z" fill="#F5F5F5"/>
<path d="M84.2556 169.926C85.0136 170.416 85.6451 171.077 86.0986 171.857C86.552 172.637 86.8145 173.513 86.8646 174.413V178.213C86.8646 179.869 85.6976 180.536 84.2556 179.713L42.7246 156.012V154.712L83.9026 178.104C84.7646 178.604 85.4636 178.204 85.4636 177.204L85.4396 173.793C85.4092 173.253 85.2516 172.728 84.9797 172.26C84.7077 171.792 84.3291 171.395 83.8746 171.101L42.7246 147.701V146.232L84.2556 169.926Z" fill="#FF5155"/>
<path opacity="0.3" d="M84.2556 169.926C85.0136 170.416 85.6451 171.077 86.0986 171.857C86.552 172.637 86.8145 173.513 86.8646 174.413V178.213C86.8646 179.869 85.6976 180.536 84.2556 179.713L42.7246 156.012V154.712L83.9026 178.104C84.7646 178.604 85.4636 178.204 85.4636 177.204L85.4396 173.793C85.4092 173.253 85.2516 172.728 84.9797 172.26C84.7077 171.792 84.3291 171.395 83.8746 171.101L42.7246 147.701V146.232L84.2556 169.926Z" fill="black"/>
<path d="M42.7246 146.232L104.98 110.494L146.515 134.188C147.273 134.677 147.904 135.339 148.358 136.119C148.811 136.898 149.073 137.774 149.124 138.675V142.475C149.158 142.797 149.105 143.122 148.971 143.417C148.837 143.712 148.627 143.965 148.362 144.151L86.0976 179.884C86.3625 179.698 86.5729 179.445 86.7069 179.15C86.8409 178.855 86.8936 178.53 86.8596 178.208V174.408C86.8102 173.508 86.5489 172.633 86.0971 171.853C85.6453 171.073 85.0157 170.411 84.2596 169.921L42.7246 146.232Z" fill="#FF5155"/>
<path opacity="0.2" d="M42.7246 146.232L104.98 110.494L146.515 134.188C147.273 134.677 147.904 135.339 148.358 136.119C148.811 136.898 149.073 137.774 149.124 138.675V142.475C149.158 142.797 149.105 143.122 148.971 143.417C148.837 143.712 148.627 143.965 148.362 144.151L86.0976 179.884C86.3625 179.698 86.5729 179.445 86.7069 179.15C86.8409 178.855 86.8936 178.53 86.8596 178.208V174.408C86.8102 173.508 86.5489 172.633 86.0971 171.853C85.6453 171.073 85.0157 170.411 84.2596 169.921L42.7246 146.232Z" fill="black"/>
<path d="M86.1016 171.859C86.57 172.631 86.8324 173.51 86.8636 174.412V178.212C86.8975 178.534 86.8448 178.859 86.7108 179.154C86.5769 179.449 86.3665 179.702 86.1016 179.888L148.361 144.15C148.626 143.965 148.836 143.711 148.97 143.416C149.104 143.122 149.157 142.796 149.123 142.474V138.666C149.09 137.764 148.827 136.886 148.361 136.113L86.1016 171.859Z" fill="#FF5155"/>
<path d="M86.1016 171.858C86.5707 172.63 86.8332 173.509 86.8636 174.411V178.211C86.897 178.533 86.8441 178.858 86.7101 179.153C86.5762 179.447 86.3661 179.701 86.1016 179.887L148.352 144.15C148.617 143.965 148.828 143.711 148.963 143.417C149.097 143.122 149.151 142.797 149.118 142.474V138.666C149.087 137.764 148.825 136.885 148.356 136.113L86.1016 171.858Z" fill="#FF5155"/>
<path d="M142.23 139.604C143.076 143.273 143.064 144.996 142.23 147.689L140.07 148.936C140.904 146.244 140.916 144.52 140.07 140.851L142.23 139.604Z" fill="#FF5155"/>
<path d="M95.5769 166.42C96.4229 170.089 96.4109 171.761 95.5769 174.453L93.4209 175.688C94.2509 172.996 94.2629 171.32 93.4209 167.659L95.5769 166.42Z" fill="#FF5155"/>
<g opacity="0.4">
<path d="M142.23 139.604C143.076 143.273 143.064 144.996 142.23 147.689L140.07 148.936C140.904 146.244 140.916 144.52 140.07 140.851L142.23 139.604Z" fill="white"/>
<path d="M95.5769 166.418C96.4229 170.087 96.4109 171.759 95.5769 174.451L93.4209 175.686C94.2509 172.994 94.2629 171.318 93.4209 167.657L95.5769 166.418Z" fill="white"/>
</g>
<path d="M37.2207 146.465L80.1417 170.85L142.397 135.112L99.4797 110.727L37.2207 146.465Z" fill="#FF5155"/>
<path opacity="0.2" d="M37.2207 146.465L80.1417 170.85L142.397 135.112L99.4797 110.727L37.2207 146.465Z" fill="white"/>
<path d="M80.4628 169.638L38.5508 145.71C39.2618 143.697 39.2058 143.085 38.4038 140.41L80.1568 164.164C80.1568 164.164 80.6418 164.127 80.4628 169.638Z" fill="#F5F5F5"/>
<path d="M78.7556 161.97C79.5136 162.459 80.1451 163.12 80.5986 163.9C81.052 164.68 81.3145 165.556 81.3646 166.457V169.963C81.3646 171.619 80.1976 172.286 78.7556 171.463L37.2246 147.764V146.464L78.4026 169.856C79.2646 170.356 79.9636 169.956 79.9636 168.956L79.9396 165.835C79.9098 165.293 79.7525 164.766 79.4806 164.297C79.2086 163.828 78.8297 163.43 78.3746 163.135L37.2246 139.735V138.27L78.7556 161.97Z" fill="#FF5155"/>
<path opacity="0.4" d="M78.7556 161.97C79.5136 162.459 80.1451 163.12 80.5986 163.9C81.052 164.68 81.3145 165.556 81.3646 166.457V169.963C81.3646 171.619 80.1976 172.286 78.7556 171.463L37.2246 147.764V146.464L78.4026 169.856C79.2646 170.356 79.9636 169.956 79.9636 168.956L79.9396 165.835C79.9098 165.293 79.7525 164.766 79.4806 164.297C79.2086 163.828 78.8297 163.43 78.3746 163.135L37.2246 139.735V138.27L78.7556 161.97Z" fill="white"/>
<path d="M37.2207 138.269L99.4797 102.531L140.999 126.231C141.76 126.72 142.394 127.383 142.849 128.164C143.305 128.945 143.569 129.823 143.62 130.726V134.231C143.655 134.554 143.602 134.88 143.467 135.175C143.333 135.47 143.121 135.723 142.854 135.907L80.5987 171.625C80.8633 171.439 81.0733 171.185 81.2073 170.891C81.3412 170.596 81.3942 170.271 81.3607 169.949V166.463C81.3113 165.563 81.05 164.687 80.5982 163.907C80.1465 163.126 79.5169 162.463 78.7607 161.972L37.2207 138.269Z" fill="#FF5155"/>
<path opacity="0.85" d="M37.2207 138.269L99.4797 102.531L140.999 126.231C141.76 126.72 142.394 127.383 142.849 128.164C143.305 128.945 143.569 129.823 143.62 130.726V134.231C143.655 134.554 143.602 134.88 143.467 135.175C143.333 135.47 143.121 135.723 142.854 135.907L80.5987 171.625C80.8633 171.439 81.0733 171.185 81.2073 170.891C81.3412 170.596 81.3942 170.271 81.3607 169.949V166.463C81.3113 165.563 81.05 164.687 80.5982 163.907C80.1465 163.126 79.5169 162.463 78.7607 161.972L37.2207 138.269Z" fill="white"/>
<path d="M80.6016 163.901C81.0707 164.672 81.3332 165.552 81.3636 166.454V169.964C81.397 170.286 81.3441 170.611 81.2101 170.905C81.0762 171.2 80.8661 171.453 80.6016 171.64L142.857 135.901C143.123 135.716 143.335 135.463 143.47 135.168C143.605 134.873 143.658 134.547 143.623 134.225V130.725C143.591 129.822 143.327 128.943 142.857 128.172L80.6016 163.901Z" fill="#FF5155"/>
<path opacity="0.6" d="M80.6016 163.901C81.0707 164.672 81.3332 165.552 81.3636 166.454V169.964C81.397 170.286 81.3441 170.611 81.2101 170.905C81.0762 171.2 80.8661 171.453 80.6016 171.64L142.857 135.901C143.123 135.716 143.335 135.463 143.47 135.168C143.605 134.873 143.658 134.547 143.623 134.225V130.725C143.591 129.822 143.327 128.943 142.857 128.172L80.6016 163.901Z" fill="white"/>
<path d="M136.73 131.645C137.576 135.314 137.564 136.745 136.73 139.44L134.57 140.687C135.404 137.995 135.416 136.561 134.57 132.887L136.73 131.645Z" fill="white"/>
<path d="M90.0765 158.449C90.9225 162.118 90.9105 163.508 90.0765 166.2L87.9165 167.443C88.7505 164.755 88.7625 163.365 87.9165 159.696L90.0765 158.449Z" fill="white"/>
<path d="M133.792 82.2534V98.4154C133.792 100.742 135.837 103.069 139.892 104.844C148.024 108.418 161.211 108.418 169.344 104.844C173.414 103.061 175.444 100.73 175.444 98.3954V82.2534C175.492 79.8704 173.459 77.5284 169.344 75.7254C161.212 72.1514 148.025 72.1514 139.892 75.7254C135.77 77.5164 133.741 79.8984 133.792 82.2534Z" fill="#37474F"/>
<path d="M133.796 82.2534C133.748 79.8704 135.781 77.5284 139.896 75.7254C148.028 72.1514 161.215 72.1514 169.348 75.7254C173.462 77.5254 175.491 79.8904 175.448 82.2534V89.6354C175.448 87.8044 173.824 86.4944 169.015 88.2654C161.133 91.1654 156.705 95.9654 148.668 98.3314C142.021 100.289 136.132 99.5224 133.793 97.0884V82.2534H133.796Z" fill="#263238"/>
<path d="M133.792 90.807V92.642C133.792 94.965 135.837 97.296 139.892 99.067C148.024 102.641 161.211 102.641 169.344 99.067C173.444 97.276 175.471 94.917 175.444 92.567V90.791C175.444 93.122 173.415 95.453 169.344 97.24C161.212 100.814 148.025 100.814 139.892 97.24C135.837 95.461 133.804 93.138 133.792 90.807Z" fill="#FF5155"/>
<path d="M187.343 77.0986L154.62 61.6406L121.892 77.0986V79.6756L154.62 93.4206L187.344 79.6776L187.343 77.0986Z" fill="#37474F"/>
<path opacity="0.2" d="M154.62 93.4177V90.8407L187.344 77.0977V79.6747L154.62 93.4177Z" fill="#FF5155"/>
<path opacity="0.2" d="M154.62 90.8407L186.875 77.8637L187.344 79.6747V77.0977L154.62 90.8407Z" fill="#FF5155"/>
<path d="M154.62 61.6406L121.892 77.0986L154.62 90.8416L187.344 77.0986L154.62 61.6406Z" fill="#455A64"/>
<path d="M137.076 89.7583C137.076 89.5443 136.976 84.5203 137.476 83.0913C137.976 81.6623 139.835 80.2123 143.714 78.2433C146.487 76.8436 149.411 75.7646 152.43 75.0273L152.589 75.7423C149.629 76.4644 146.762 77.5223 144.044 78.8953C140.399 80.7453 138.588 82.1153 138.171 83.3303C137.798 84.4143 137.794 88.3303 137.826 89.7433L137.076 89.7583Z" fill="#FF5155"/>
<path opacity="0.8" d="M137.076 89.7583C137.076 89.5443 136.976 84.5203 137.476 83.0913C137.976 81.6623 139.835 80.2123 143.714 78.2433C146.487 76.8436 149.411 75.7646 152.43 75.0273L152.589 75.7423C149.629 76.4644 146.762 77.5223 144.044 78.8953C140.399 80.7453 138.588 82.1153 138.171 83.3303C137.798 84.4143 137.794 88.3303 137.826 89.7433L137.076 89.7583Z" fill="white"/>
<path d="M141.326 105.121C141.326 101.361 140.703 94.626 138.726 92.668H136.126C134.141 94.626 133.533 101.36 133.533 105.121C133.564 105.463 133.686 105.791 133.886 106.07C134.087 106.35 134.358 106.57 134.673 106.709C135.526 107.142 136.47 107.368 137.427 107.368C138.384 107.368 139.327 107.142 140.181 106.709C140.495 106.57 140.767 106.349 140.968 106.07C141.169 105.791 141.293 105.463 141.326 105.121Z" fill="#FF5155"/>
<path opacity="0.5" d="M141.326 105.121C141.326 101.361 140.703 94.626 138.726 92.668H136.126C134.141 94.626 133.533 101.36 133.533 105.121C133.564 105.463 133.686 105.791 133.886 106.07C134.087 106.35 134.358 106.57 134.673 106.709C135.526 107.142 136.47 107.368 137.427 107.368C138.384 107.368 139.327 107.142 140.181 106.709C140.495 106.57 140.767 106.349 140.968 106.07C141.169 105.791 141.293 105.463 141.326 105.121Z" fill="white"/>
<path opacity="0.6" d="M136.127 92.668C135.97 92.8292 135.829 93.0046 135.706 93.192C136.267 93.6716 136.985 93.9276 137.723 93.911C138.481 93.971 139.272 94.586 139.609 97.671C139.946 100.756 140.602 104.695 139.379 105.891C138.156 107.087 135.428 107.082 133.995 106.185C134.194 106.393 134.423 106.57 134.674 106.713C135.527 107.146 136.471 107.372 137.428 107.372C138.385 107.372 139.328 107.146 140.182 106.713C140.496 106.573 140.768 106.353 140.969 106.074C141.17 105.795 141.293 105.467 141.326 105.125C141.326 101.365 140.703 94.63 138.726 92.672L136.127 92.668Z" fill="#FF5155"/>
<path d="M139.379 91.299C139.378 91.7501 139.221 92.1869 138.934 92.5351C138.647 92.8834 138.249 93.1214 137.806 93.2088C137.364 93.2961 136.904 93.2274 136.507 93.0142C136.109 92.801 135.798 92.4566 135.626 92.0397C135.454 91.6227 135.432 91.159 135.563 90.7275C135.695 90.296 135.972 89.9234 136.347 89.6732C136.722 89.423 137.173 89.3106 137.621 89.3553C138.07 89.3999 138.49 89.5988 138.809 89.918C139.174 90.2846 139.379 90.7813 139.379 91.299Z" fill="#FF5155"/>
<path opacity="0.5" d="M139.379 91.299C139.378 91.7501 139.221 92.1869 138.934 92.5351C138.647 92.8834 138.249 93.1214 137.806 93.2088C137.364 93.2961 136.904 93.2274 136.507 93.0142C136.109 92.801 135.798 92.4566 135.626 92.0397C135.454 91.6227 135.432 91.159 135.563 90.7275C135.695 90.296 135.972 89.9234 136.347 89.6732C136.722 89.423 137.173 89.3106 137.621 89.3553C138.07 89.3999 138.49 89.5988 138.809 89.918C139.174 90.2846 139.379 90.7813 139.379 91.299Z" fill="white"/>
<path opacity="0.4" d="M138.562 89.7148C138.705 89.9099 138.806 90.1322 138.86 90.3679C138.913 90.6037 138.918 90.8479 138.874 91.0856C138.829 91.3233 138.737 91.5494 138.602 91.75C138.467 91.9505 138.292 92.1213 138.089 92.2518C137.697 92.5089 137.224 92.613 136.761 92.5442C136.297 92.4754 135.875 92.2386 135.575 91.8788C135.667 92.1738 135.827 92.4427 136.044 92.6633C136.26 92.8839 136.526 93.0498 136.819 93.1472C137.112 93.2447 137.424 93.271 137.73 93.2239C138.035 93.1768 138.325 93.0577 138.575 92.8764C138.825 92.6951 139.028 92.4568 139.168 92.1813C139.308 91.9058 139.38 91.6009 139.379 91.292C139.377 90.983 139.303 90.6789 139.16 90.4046C139.018 90.1303 138.813 89.8939 138.562 89.7148Z" fill="#FF5155"/>
<path d="M151.987 74.0919C152.009 73.8612 152.092 73.6405 152.227 73.4522C152.363 73.264 152.545 73.1148 152.757 73.0199C153.334 72.7282 153.971 72.5762 154.617 72.5762C155.264 72.5762 155.901 72.7282 156.478 73.0199C156.689 73.1148 156.872 73.264 157.007 73.4522C157.142 73.6405 157.225 73.8612 157.248 74.0919V74.9539C157.226 75.1848 157.143 75.4057 157.008 75.594C156.872 75.7823 156.69 75.9314 156.478 76.0259C155.901 76.3177 155.264 76.4697 154.617 76.4697C153.971 76.4697 153.334 76.3177 152.757 76.0259C152.545 75.9314 152.362 75.7823 152.227 75.594C152.092 75.4057 152.009 75.1848 151.987 74.9539V74.0919Z" fill="#263238"/>
<path d="M156.486 75.1679C156.71 75.0919 156.905 74.9473 157.043 74.7547C157.181 74.562 157.256 74.331 157.256 74.0939C157.256 73.8569 157.181 73.6258 157.043 73.4332C156.905 73.2405 156.71 73.096 156.486 73.0199C155.909 72.7282 155.271 72.5762 154.625 72.5762C153.979 72.5762 153.341 72.7282 152.765 73.0199C152.541 73.0965 152.346 73.2412 152.208 73.4338C152.071 73.6264 151.997 73.8572 151.997 74.0939C151.997 74.3307 152.071 74.5615 152.208 74.7541C152.346 74.9467 152.541 75.0914 152.765 75.1679C153.341 75.4597 153.979 75.6117 154.625 75.6117C155.271 75.6117 155.909 75.4597 156.486 75.1679Z" fill="#37474F"/>
<path d="M50.4395 152.601C52.7665 152.343 56.8205 151.966 60.1875 156.675C64.0235 162.032 62.4235 169.775 58.5995 173.603C53.7785 178.368 45.2335 180.079 39.3885 176.335C32.9165 172.193 30.8595 162.608 33.9565 157.728C37.0535 152.848 43.1335 153.054 44.7735 153.443C47.2355 154.026 48.6325 152.803 50.4395 152.601Z" fill="#FF5155"/>
<path opacity="0.1" d="M42.3435 174.613C48.8595 176.86 56.8255 174.454 61.1135 169.848C60.5106 171.248 59.6538 172.525 58.5865 173.613C53.7655 178.378 45.2205 180.09 39.3755 176.345C34.4755 173.216 32.1205 166.93 32.5975 161.955C32.5955 163.323 35.1725 172.142 42.3435 174.613Z" fill="black"/>
<g opacity="0.1">
<path d="M53.1796 154.242C54.6406 153.842 57.0196 154.81 58.4926 156.625C60.2294 159.094 61.1437 162.048 61.1056 165.067C61.1056 170.416 56.5466 174.001 55.9876 173.644C55.4286 173.287 58.4976 169.276 55.5876 164.428C52.6716 159.539 50.7816 154.865 53.1796 154.242Z" fill="white"/>
</g>
<g opacity="0.1">
<path d="M54.4703 154.885C56.0583 155.139 58.2303 157.268 58.9773 158.892C59.7243 160.516 59.7003 161.727 59.5013 161.969C59.1443 162.398 55.5623 159.92 54.3393 158.745C52.5953 157.073 51.8893 154.476 54.4703 154.885Z" fill="white"/>
</g>
<path opacity="0.2" d="M48.8084 157.458C49.5034 156.664 50.2084 156.223 50.7934 157.124C51.3784 158.025 49.4674 159.904 46.9694 159.624C44.4714 159.344 43.3954 157.924 43.2964 157.124C44.0704 157.976 45.1468 158.494 46.2964 158.565C47.2366 158.498 48.1245 158.106 48.8084 157.458Z" fill="black"/>
<path d="M46.8497 159.011C46.506 156.794 46.4938 154.539 46.8137 152.32C47.3737 149.084 48.9137 146.626 49.3907 146.3C50.1706 145.848 51.036 145.564 51.9317 145.466C53.1547 145.271 54.7507 145.866 54.4317 146.383C54.1127 146.9 52.4107 147.574 50.6157 149.937C48.8207 152.3 47.4387 156.525 47.8357 158.844C47.7032 158.961 47.5407 159.038 47.3665 159.068C47.1923 159.097 47.0133 159.077 46.8497 159.011Z" fill="#37474F"/>
<path d="M49.4745 146.247L49.5815 146.179C50.3136 145.811 51.1034 145.572 51.9165 145.472C52.7455 145.332 53.5966 145.511 54.2995 145.972C54.4145 146.135 54.1845 146.417 53.1085 146.766C52.0559 147.108 50.9365 147.193 49.8445 147.012C49.3795 146.906 49.1215 146.517 49.4745 146.247Z" fill="#455A64"/>
<path opacity="0.1" d="M47.7837 154.892C48.2757 151.977 50.8057 149.186 52.6277 147.832C51.8774 148.451 51.2018 149.156 50.6147 149.932C48.8147 152.291 47.4377 156.52 47.8347 158.839C47.7031 158.954 47.5422 159.031 47.3698 159.06C47.1974 159.09 47.0202 159.071 46.8577 159.006C46.8577 159.006 46.7147 158.172 46.6357 156.945C46.8897 158.061 47.3267 157.58 47.7837 154.892Z" fill="black"/>
<path d="M46.6117 154.116C45.6431 154.431 44.6089 154.487 43.612 154.278C42.6152 154.069 41.6904 153.603 40.9297 152.925C38.8727 150.999 39.4767 147.934 39.4767 147.934C40.2945 147.643 41.1701 147.552 42.0303 147.668C42.8905 147.785 43.7102 148.106 44.4207 148.605C45.2021 149.28 45.8093 150.133 46.1907 151.093C46.5721 152.052 46.7165 153.089 46.6117 154.116Z" fill="#FF5155"/>
<path opacity="0.3" d="M46.6117 154.116C45.6431 154.431 44.6089 154.487 43.612 154.278C42.6152 154.069 41.6904 153.603 40.9297 152.925C38.8727 150.999 39.4767 147.934 39.4767 147.934C40.2945 147.643 41.1701 147.552 42.0303 147.668C42.8905 147.785 43.7102 148.106 44.4207 148.605C45.2021 149.28 45.8093 150.133 46.1907 151.093C46.5721 152.052 46.7165 153.089 46.6117 154.116Z" fill="black"/>
<path d="M39.4766 147.948C40.2943 147.657 41.17 147.565 42.0302 147.682C42.8904 147.799 43.7101 148.12 44.4206 148.619C45.1998 149.293 45.8057 150.144 46.1871 151.102C46.5686 152.059 46.7145 153.094 46.6126 154.119C44.5076 150.092 39.4766 147.948 39.4766 147.948Z" fill="#FF5155"/>
<path opacity="0.2" d="M39.4766 147.948C40.2943 147.657 41.17 147.565 42.0302 147.682C42.8904 147.799 43.7101 148.12 44.4206 148.619C45.1998 149.293 45.8057 150.144 46.1871 151.102C46.5686 152.059 46.7145 153.094 46.6126 154.119C44.5076 150.092 39.4766 147.948 39.4766 147.948Z" fill="black"/>
<path d="M158.114 149.225C158.15 149.861 158.336 150.481 158.656 151.033C158.976 151.585 159.421 152.053 159.956 152.402C160.267 152.607 160.644 152.687 161.012 152.624C160.952 152.685 160.885 152.739 160.812 152.783L161.253 152.529H161.281L161.345 152.485C161.374 152.463 161.402 152.439 161.428 152.414L161.476 152.366L161.52 152.314C161.582 152.23 161.633 152.137 161.671 152.04C161.683 152.01 161.694 151.98 161.703 151.949C161.706 151.934 161.706 151.919 161.703 151.905C161.713 151.879 161.719 151.853 161.723 151.826C161.759 151.675 161.777 151.52 161.775 151.365C161.738 150.728 161.553 150.109 161.234 149.557C160.914 149.005 160.47 148.536 159.936 148.188C159.688 148.031 159.403 147.943 159.11 147.934H158.995L158.888 147.954H158.788L158.713 147.986L158.642 148.022L158.242 148.24C158.305 148.208 158.372 148.184 158.442 148.169C158.199 148.464 158.081 148.843 158.114 149.225Z" fill="#FF5155"/>
<path d="M110.516 175.834L113.109 180.361L113.55 180.107L160.803 152.807C160.876 152.764 160.943 152.71 161.003 152.648C161.246 152.361 161.368 151.992 161.345 151.616C161.308 150.98 161.122 150.36 160.802 149.808C160.482 149.257 160.037 148.788 159.503 148.439C159.255 148.286 158.972 148.199 158.681 148.189C158.602 148.189 158.524 148.197 158.447 148.213C158.377 148.229 158.31 148.253 158.247 148.285H158.215L110.516 175.834Z" fill="#F0F0F0"/>
<path d="M111.814 175.965C110.797 175.377 109.976 175.854 109.976 177.025C110.012 177.661 110.197 178.281 110.516 178.833C110.836 179.385 111.28 179.854 111.815 180.202C112.832 180.79 113.657 180.313 113.657 179.138C113.62 178.501 113.434 177.883 113.114 177.331C112.794 176.78 112.348 176.312 111.814 175.965Z" fill="#FF5155"/>
<path d="M137.942 161.94L138.002 161.904C138.073 161.881 138.149 161.875 138.223 161.886C138.298 161.897 138.369 161.925 138.43 161.968C138.621 162.093 138.779 162.26 138.893 162.457C139.006 162.653 139.072 162.874 139.085 163.1C139.092 163.175 139.081 163.249 139.054 163.318C139.027 163.388 138.985 163.45 138.93 163.5L138.851 163.548L110.88 179.693L109.042 178.629L137.942 161.94Z" fill="#455A64"/>
<path d="M113.489 178.181L110.889 179.681L109.051 178.617L112.569 176.588C112.982 177.049 113.294 177.591 113.486 178.18L113.489 178.181Z" fill="#37474F"/>
<path d="M106.934 179.924L109.066 177.581L109.122 177.517C109.27 177.396 109.456 177.33 109.648 177.33C109.839 177.33 110.025 177.396 110.174 177.517C110.552 177.764 110.867 178.096 111.093 178.487C111.318 178.878 111.449 179.317 111.474 179.768C111.499 179.952 111.464 180.139 111.374 180.301C111.283 180.463 111.143 180.592 110.974 180.668L110.891 180.688L107.766 181.367C107.648 181.385 107.528 181.36 107.428 181.296C107.255 181.183 107.112 181.031 107.009 180.852C106.906 180.674 106.847 180.474 106.836 180.268C106.823 180.145 106.859 180.022 106.936 179.926L106.934 179.924Z" fill="#FF5155"/>
<path opacity="0.1" d="M106.934 179.924L109.066 177.581L109.122 177.517C109.27 177.396 109.456 177.33 109.648 177.33C109.839 177.33 110.025 177.396 110.174 177.517C110.552 177.764 110.867 178.096 111.093 178.487C111.318 178.878 111.449 179.317 111.474 179.768C111.499 179.952 111.464 180.139 111.374 180.301C111.283 180.463 111.143 180.592 110.974 180.668L110.891 180.688L107.766 181.367C107.648 181.385 107.528 181.36 107.428 181.296C107.255 181.183 107.112 181.031 107.009 180.852C106.906 180.674 106.847 180.474 106.836 180.268C106.823 180.145 106.859 180.022 106.936 179.926L106.934 179.924Z" fill="black"/>
<path d="M106.814 180.264C106.826 180.47 106.887 180.67 106.991 180.848C107.095 181.026 107.241 181.177 107.414 181.289C107.513 181.353 107.632 181.378 107.748 181.36L109.336 181.019C109.582 180.963 109.736 180.729 109.736 180.356C109.719 180.027 109.624 179.706 109.46 179.421C109.296 179.135 109.067 178.892 108.791 178.712C108.683 178.626 108.55 178.58 108.412 178.58C108.275 178.58 108.141 178.626 108.033 178.712L107.989 178.76L106.933 179.919C106.892 179.965 106.861 180.02 106.842 180.08C106.823 180.139 106.816 180.202 106.822 180.264H106.814Z" fill="#FF5155"/>
<path opacity="0.1" d="M107.404 179.92C107.078 179.733 106.812 179.884 106.812 180.261C106.824 180.467 106.883 180.667 106.986 180.846C107.089 181.024 107.232 181.176 107.404 181.289C107.734 181.476 107.996 181.325 107.996 180.948C107.986 180.742 107.926 180.542 107.824 180.363C107.721 180.185 107.577 180.033 107.404 179.92Z" fill="black"/>
<path d="M154.283 152.493C154.356 152.458 154.438 152.443 154.519 152.451C154.6 152.459 154.678 152.489 154.744 152.537C154.934 152.661 155.092 152.827 155.205 153.023C155.318 153.219 155.383 153.439 155.395 153.665C155.404 153.747 155.391 153.83 155.356 153.905C155.322 153.98 155.268 154.044 155.2 154.09L138.943 163.49C138.997 163.44 139.04 163.378 139.066 163.308C139.093 163.239 139.104 163.164 139.098 163.09C139.085 162.864 139.018 162.643 138.905 162.446C138.791 162.25 138.633 162.083 138.443 161.958C138.381 161.915 138.31 161.887 138.236 161.876C138.161 161.865 138.085 161.871 138.014 161.894L154.283 152.493Z" fill="#FAFAFA"/>
<path d="M154.103 152.914C154.117 153.14 154.183 153.359 154.296 153.555C154.409 153.751 154.566 153.918 154.754 154.042C154.817 154.095 154.895 154.127 154.977 154.134C155.059 154.141 155.141 154.123 155.212 154.082C155.283 154.041 155.34 153.979 155.375 153.904C155.409 153.829 155.42 153.746 155.405 153.665C155.394 153.439 155.329 153.219 155.216 153.023C155.102 152.827 154.944 152.66 154.754 152.537C154.692 152.484 154.614 152.452 154.532 152.445C154.45 152.438 154.368 152.456 154.297 152.497C154.226 152.538 154.169 152.601 154.134 152.675C154.1 152.75 154.089 152.833 154.103 152.914Z" fill="#F5F5F5"/>
<path d="M155.548 150.127H155.6L158.316 148.539L158.38 148.503C158.564 148.431 158.762 148.407 158.958 148.431C159.153 148.455 159.34 148.528 159.5 148.642C159.983 148.956 160.385 149.38 160.672 149.879C160.96 150.378 161.126 150.937 161.156 151.513C161.178 151.718 161.144 151.927 161.059 152.115C160.973 152.304 160.838 152.466 160.668 152.585L157.92 154.173C157.734 154.25 157.531 154.28 157.33 154.258C157.129 154.235 156.937 154.162 156.772 154.046C156.29 153.73 155.889 153.306 155.602 152.808C155.314 152.309 155.148 151.749 155.116 151.175C155.096 150.978 155.124 150.779 155.2 150.596C155.275 150.413 155.395 150.252 155.548 150.127Z" fill="#FF5155"/>
<path opacity="0.05" d="M155.548 150.127H155.6L158.316 148.539L158.38 148.503C158.564 148.431 158.762 148.407 158.958 148.431C159.153 148.455 159.34 148.528 159.5 148.642C159.983 148.956 160.385 149.38 160.672 149.879C160.96 150.378 161.126 150.937 161.156 151.513C161.178 151.718 161.144 151.927 161.059 152.115C160.973 152.304 160.838 152.466 160.668 152.585L157.92 154.173C157.734 154.25 157.531 154.28 157.33 154.258C157.129 154.235 156.937 154.162 156.772 154.046C156.29 153.73 155.889 153.306 155.602 152.808C155.314 152.309 155.148 151.749 155.116 151.175C155.096 150.978 155.124 150.779 155.2 150.596C155.275 150.413 155.395 150.252 155.548 150.127Z" fill="black"/>
<path opacity="0.1" d="M156.752 150.222C155.839 149.694 155.096 150.122 155.096 151.175C155.127 151.75 155.293 152.31 155.581 152.808C155.869 153.307 156.27 153.731 156.752 154.046C157.665 154.574 158.408 154.146 158.408 153.089C158.376 152.515 158.21 151.956 157.922 151.458C157.635 150.96 157.234 150.537 156.752 150.222Z" fill="black"/>
<path d="M106.057 180.912L107.181 180.237C107.214 180.218 107.251 180.207 107.29 180.207C107.328 180.207 107.366 180.218 107.399 180.237C107.487 180.296 107.561 180.374 107.614 180.465C107.667 180.557 107.698 180.66 107.705 180.765C107.708 180.803 107.702 180.841 107.686 180.875C107.67 180.91 107.645 180.939 107.614 180.96L106.494 181.639C106.43 181.673 106.36 181.691 106.288 181.691C106.194 181.692 106.102 181.663 106.027 181.607C105.952 181.551 105.897 181.472 105.871 181.382C105.845 181.292 105.849 181.196 105.883 181.108C105.916 181.021 105.978 180.947 106.058 180.897L106.057 180.912Z" fill="#455A64"/>
<path d="M105.996 180.965L106.056 180.917C106.089 180.906 106.124 180.904 106.158 180.909C106.192 180.915 106.224 180.928 106.251 180.949C106.34 181.007 106.414 181.085 106.468 181.176C106.521 181.268 106.552 181.371 106.557 181.477C106.561 181.514 106.555 181.551 106.54 181.584C106.525 181.618 106.501 181.647 106.47 181.668H106.426C106.382 181.686 106.335 181.694 106.287 181.692C106.173 181.692 106.063 181.646 105.981 181.565C105.9 181.484 105.854 181.374 105.854 181.259C105.856 181.203 105.87 181.147 105.895 181.097C105.919 181.046 105.954 181.001 105.997 180.965H105.996Z" fill="#263238"/>
<path d="M178.162 150.403L185.472 148.989C185.518 148.979 185.567 148.985 185.611 149.004C185.654 149.024 185.691 149.056 185.714 149.098C185.738 149.139 185.748 149.187 185.743 149.235C185.738 149.282 185.718 149.327 185.686 149.362L180.707 154.945L178.162 150.403Z" fill="#FFA8A7"/>
<path d="M185.675 149.344C185.699 149.309 185.712 149.268 185.714 149.226C185.716 149.183 185.706 149.142 185.685 149.105C185.664 149.068 185.633 149.038 185.596 149.018C185.559 148.998 185.517 148.988 185.475 148.991L184.049 149.273C184.245 149.393 184.404 149.565 184.508 149.771C184.612 149.976 184.657 150.206 184.637 150.436V150.563L185.675 149.344Z" fill="#263238"/>
<path d="M144.846 175.497L145.446 175.156L146.169 174.756L180.711 154.945C180.954 154.141 180.883 153.275 180.511 152.523C180.321 152.003 180.007 151.538 179.597 151.168C179.187 150.797 178.692 150.531 178.156 150.395L143.61 170.178L142.232 170.972C143.166 170.517 145.763 175.02 144.846 175.497Z" fill="#455A64"/>
<path d="M147.122 174.193L148.456 173.427C148.856 173.217 148.623 172.236 148.162 171.251C147.554 169.925 146.355 168.638 145.835 168.912L144.85 169.476L144.505 169.686C145.025 169.408 146.224 170.695 146.832 172.025C147.273 172.982 147.495 173.915 147.162 174.165C147.158 174.172 147.152 174.179 147.145 174.183C147.138 174.188 147.131 174.192 147.122 174.193Z" fill="#EBEBEB"/>
<path d="M147.456 174.011C148.369 173.527 145.749 169.011 144.835 169.5L143.5 170.266C144.413 169.782 147.034 174.292 146.117 174.777L147.456 174.011Z" fill="#FF5155"/>
<path d="M144.847 175.495L146.165 174.741C147.065 174.272 144.577 169.897 143.624 170.186L143.568 170.206L142.246 170.976C143.167 170.516 145.764 175.019 144.847 175.495Z" fill="#EBEBEB"/>
<path opacity="0.15" d="M185.707 149.097L185.473 148.99L180.173 151.89L144.135 172.537C144.083 172.458 144.035 172.45 144.008 172.505C144.802 173.72 145.374 175.249 144.862 175.515L145.462 175.174L146.185 174.774L180.715 154.944L185.667 149.337C185.697 149.306 185.718 149.266 185.727 149.223C185.735 149.18 185.731 149.136 185.715 149.095L185.707 149.097Z" fill="black"/>
<path d="M139.253 178.695L144.848 175.495C145.248 175.295 145.023 174.336 144.57 173.339C143.97 172.009 142.77 170.71 142.247 170.976L136.632 174.192C135.516 174.835 136.541 177.257 137.784 178.338C137.963 178.54 138.2 178.683 138.462 178.747C138.725 178.81 139.001 178.793 139.253 178.695Z" fill="#F28F8F"/>
<path opacity="0.1" d="M139.586 176.961C139.444 176.356 139.164 175.793 138.768 175.314C138.371 174.835 137.87 174.454 137.303 174.201C137.165 174.15 137.016 174.133 136.87 174.152C136.724 174.172 136.585 174.227 136.465 174.312C135.623 175.106 136.604 177.312 137.779 178.338C137.955 178.536 138.187 178.676 138.443 178.742C138.7 178.807 138.97 178.795 139.22 178.707C139.641 178.462 139.808 177.819 139.586 176.961Z" fill="black"/>
<path d="M59.9228 57.6321L65.9388 54.4871C69.2914 55.1645 72.7228 55.3664 76.1318 55.0871C85.5627 54.5271 91.0657 50.5441 89.6647 44.9531C88.2277 39.2231 81.9218 36.9721 70.6798 37.4081C56.6188 37.9561 53.2078 47.4901 61.6028 53.1251L59.9228 57.6321Z" fill="#FF5155"/>
<path opacity="0.7" d="M59.9228 57.6321L65.9388 54.4871C69.2914 55.1645 72.7228 55.3664 76.1318 55.0871C85.5627 54.5271 91.0657 50.5441 89.6647 44.9531C88.2277 39.2231 81.9218 36.9721 70.6798 37.4081C56.6188 37.9561 53.2078 47.4901 61.6028 53.1251L59.9228 57.6321Z" fill="white"/>
<path d="M66.3716 47.959C67.2006 47.959 67.8726 47.287 67.8726 46.458C67.8726 45.6291 67.2006 44.957 66.3716 44.957C65.5426 44.957 64.8706 45.6291 64.8706 46.458C64.8706 47.287 65.5426 47.959 66.3716 47.959Z" fill="white"/>
<path d="M73.4239 47.959C74.2528 47.959 74.9249 47.287 74.9249 46.458C74.9249 45.6291 74.2528 44.957 73.4239 44.957C72.5949 44.957 71.9229 45.6291 71.9229 46.458C71.9229 47.287 72.5949 47.959 73.4239 47.959Z" fill="white"/>
<path d="M80.4756 47.959C81.3046 47.959 81.9766 47.287 81.9766 46.458C81.9766 45.6291 81.3046 44.957 80.4756 44.957C79.6466 44.957 78.9746 45.6291 78.9746 46.458C78.9746 47.287 79.6466 47.959 80.4756 47.959Z" fill="white"/>
</g>
</g>
</g>
<defs>
<clipPath id="clip0_851_13391">
<rect width="220" height="220" fill="white" transform="translate(0.820312 0.113281)"/>
</clipPath>
<clipPath id="clip1_851_13391">
<rect width="220" height="220" fill="white" transform="translate(0.820312 0.113281)"/>
</clipPath>
<clipPath id="clip2_851_13391">
<rect width="220" height="220" fill="white" transform="translate(0.820312 0.113281)"/>
</clipPath>
</defs>
</svg>
