<svg width="25" height="25" viewBox="0 0 25 25" fill="none" xmlns="http://www.w3.org/2000/svg">
<path fill-rule="evenodd" clip-rule="evenodd" d="M11.8533 0.67146C11.2802 0.825283 10.8241 1.20328 10.5544 1.74798C10.3789 2.10239 10.3733 2.12999 10.3733 2.63891C10.3733 3.15959 10.3723 3.16434 10.2521 3.19121C9.59731 3.33767 8.97731 3.55918 8.22567 3.9153C6.5428 4.71259 5.17568 5.93344 4.17138 7.53572L3.90203 7.96543L3.39952 7.95681C2.79193 7.9464 2.54742 7.99966 2.00936 8.25956C1.29719 8.60362 0.763307 9.23886 0.476218 10.0837C0.408579 10.2827 0.385742 10.4907 0.385742 10.9068C0.385742 11.5724 0.442762 11.7697 0.847867 12.5046C1.21069 13.1628 1.32294 13.5417 1.38578 14.3202C1.45249 15.1475 1.45463 15.1559 1.64857 15.3495C1.75263 15.4535 1.81542 15.5633 1.81542 15.6413C1.81542 15.8161 1.9921 16.1619 2.12626 16.2497C2.20772 16.3029 2.2453 16.3836 2.26338 16.5439C2.29228 16.8 2.47221 17.0637 2.70282 17.1878C2.82369 17.2529 2.97546 17.2709 3.39166 17.2691L3.9254 17.2669L4.15213 17.637C4.85877 18.7908 5.86064 19.8366 6.98568 20.5947L7.34288 20.8354V22.0178C7.34288 23.2539 7.36305 23.3941 7.55428 23.4864C7.61135 23.5139 7.98532 23.5498 8.38534 23.5663C10.0578 23.6351 11.2929 23.947 12.1188 24.5093C12.3033 24.6349 12.4677 24.6349 12.6522 24.5093C13.478 23.947 14.7131 23.6351 16.3856 23.5663C16.7856 23.5498 17.1596 23.5139 17.2167 23.4864C17.4079 23.3941 17.4281 23.2539 17.4281 22.0178V20.8354L17.7853 20.5947C18.5699 20.066 19.4737 19.2262 20.0046 18.5326C20.5417 17.8309 21.1585 16.7453 21.3835 16.1059L21.4707 15.858L21.848 15.777C22.9505 15.5404 23.8839 14.6877 24.2452 13.587C24.3675 13.2143 24.3859 13.0854 24.3857 12.6014C24.3855 11.6497 24.1055 10.9815 23.4204 10.2973C22.9599 9.83744 22.4505 9.55507 21.848 9.4258L21.4707 9.34484L21.3831 9.09695C21.2386 8.68854 20.7846 7.81427 20.4623 7.32389C19.0926 5.24015 16.929 3.73576 14.5189 3.1915C14.3988 3.16434 14.3977 3.15935 14.3977 2.64157C14.3977 2.15381 14.3873 2.09716 14.2421 1.79102C14.0665 1.42087 13.6787 1.00075 13.3651 0.841019C12.8949 0.6014 12.3444 0.539668 11.8533 0.67146ZM12.9507 1.50531C13.2063 1.6355 13.5162 1.98765 13.5891 2.2307C13.7981 2.92738 13.4208 3.66556 12.7546 3.86315C12.4518 3.95291 12.3191 3.95291 12.0164 3.86315C11.152 3.60683 10.8338 2.50024 11.4299 1.82399C11.6152 1.61372 11.7953 1.49291 12.0458 1.41085C12.2475 1.34476 12.7355 1.39569 12.9507 1.50531ZM10.8759 4.03658C10.9391 4.11632 10.9827 4.18818 10.9729 4.19631C10.9631 4.2044 10.7915 4.29523 10.5915 4.39812C10.3241 4.53567 10.1118 4.70102 9.78956 5.02251C9.42334 5.38796 9.31371 5.5354 9.12248 5.91978C8.88218 6.40294 8.74681 6.84979 8.73304 7.20566C8.72668 7.36921 8.7502 7.44349 8.8352 7.52836L8.94565 7.63861H12.3855H15.8253L15.9358 7.52836C16.0208 7.44349 16.0443 7.36921 16.0379 7.20566C16.0241 6.84979 15.8888 6.40294 15.6485 5.91978C15.3446 5.3088 14.7374 4.68247 14.1675 4.39226C13.961 4.28705 13.7926 4.19006 13.7933 4.17675C13.7941 4.16343 13.8495 4.09028 13.9164 4.01421L14.0383 3.87593L14.4846 3.98284C15.4577 4.21587 16.6784 4.77616 17.5212 5.37654C18.3917 5.99667 19.2605 6.90799 19.8625 7.83228C20.1535 8.27917 20.6282 9.20148 20.6282 9.3201C20.6282 9.36228 20.5221 9.40837 20.3374 9.44647C19.2961 9.6612 18.2847 10.6621 17.9812 11.7783C17.866 12.202 17.866 13.0008 17.9812 13.4245C18.2188 14.2984 18.8777 15.111 19.6617 15.497C19.8901 15.6095 20.201 15.7275 20.3526 15.7593C20.5082 15.7918 20.6282 15.8431 20.6282 15.8769C20.6282 15.9805 20.3048 16.6509 20.0297 17.1177C19.4971 18.0213 18.6542 18.9755 17.8255 19.613L17.4281 19.9187V18.8722C17.4281 17.782 17.3974 17.5944 17.2077 17.5217C16.9214 17.4119 15.5604 17.5553 14.8875 17.766C14.0921 18.015 13.2083 18.5788 12.6619 19.1856C12.5417 19.3191 12.4316 19.4283 12.4172 19.4283C12.4028 19.4283 12.2766 19.3075 12.1368 19.1599C11.2478 18.2213 9.78141 17.5926 8.28332 17.508C7.32639 17.4539 7.34288 17.43 7.34288 18.8722V19.9187L6.94573 19.613C6.42236 19.2101 5.79703 18.5867 5.37985 18.052C4.9652 17.5205 4.43369 16.6383 4.43369 16.4816C4.43369 16.4174 4.50811 16.2833 4.60014 16.1815C4.75486 16.0105 4.86914 15.7405 4.86978 15.5445C4.86992 15.4988 4.91366 15.4382 4.96689 15.4097C5.15488 15.3093 5.24244 15.0332 5.27512 14.4381C5.31808 13.6559 5.43682 13.2422 5.83509 12.488C6.30856 11.5912 6.40074 11.1186 6.25271 10.3462C6.08902 9.49165 5.62767 8.84953 4.77435 8.28837L4.65803 8.21187L4.7743 8.02208C5.79073 6.36334 7.41023 5.00847 9.19647 4.32249C9.59512 4.16944 10.5494 3.89443 10.6884 3.89259C10.7284 3.89205 10.8128 3.95684 10.8759 4.03658ZM13.3067 4.85193C14.0191 5.09606 14.6106 5.59945 14.9422 6.24394C15.0491 6.4518 15.1508 6.68178 15.1681 6.75499L15.1995 6.88814H12.3855H9.57141L9.60356 6.75499C9.65622 6.53687 9.91 6.05826 10.1153 5.78998C10.4574 5.34279 11.0998 4.93158 11.6875 4.78357C12.1037 4.67874 12.8992 4.71235 13.3067 4.85193ZM8.01592 8.18539C7.69882 8.35083 7.50633 8.61132 7.44019 8.96457C7.37546 9.31037 7.37546 13.8105 7.44019 14.1563C7.50788 14.5179 7.69867 14.7756 8.01859 14.9376L8.28153 15.0707H9.41223H10.543V15.2402V15.4096L10.143 15.4099C9.64599 15.4103 9.42465 15.4697 9.20583 15.6616C8.94608 15.8893 8.89445 16.0281 8.89445 16.4988C8.89445 16.8761 8.90555 16.9261 9.01348 17.0338L9.13247 17.1527H12.3855H15.6385L15.7575 17.0338C15.8654 16.9261 15.8765 16.8761 15.8765 16.4988C15.8765 16.0281 15.8249 15.8893 15.5651 15.6616C15.3463 15.4697 15.125 15.4103 14.628 15.4099L14.228 15.4096V15.2402V15.0707H15.3587H16.4894L16.7524 14.9376C17.0723 14.7756 17.2631 14.5179 17.3308 14.1563C17.3955 13.8105 17.3955 9.31037 17.3308 8.96457C17.2646 8.61132 17.0721 8.35083 16.755 8.18539L16.4958 8.05016H12.3855H8.27518L8.01592 8.18539ZM4.25341 8.9102C5.07962 9.29221 5.62039 10.2313 5.52861 11.1247C5.5048 11.3567 5.42068 11.5711 5.11066 12.1899C4.79094 12.8279 4.7041 13.0521 4.61813 13.4608L4.51379 13.9571H4.35252H4.19125V12.9471V11.9371L4.43553 11.9082C4.97213 11.8447 5.31309 11.498 5.34596 10.9824C5.3751 10.5252 5.16903 10.1832 4.76184 10.0134C4.30408 9.82239 3.75541 10.0141 3.52175 10.4468C3.47865 10.5267 3.43162 10.7102 3.41726 10.8546C3.38298 11.2002 3.27001 11.2492 3.27001 10.9185C3.27001 10.026 2.1604 9.60765 1.55834 10.2731C1.00511 10.8846 1.3946 11.807 2.24869 11.908L2.49423 11.9371V12.9471V13.9571H2.32545C2.18891 13.9571 2.15269 13.9363 2.13581 13.8482C2.02667 13.2772 1.88781 12.8327 1.71258 12.4929C1.59917 12.2729 1.43223 11.9492 1.34161 11.7733C1.20899 11.5159 1.17181 11.3791 1.15076 11.0713C1.08099 10.0513 1.6749 9.16439 2.6633 8.81249C2.85283 8.745 3.01851 8.72951 3.41547 8.74205C3.86494 8.75628 3.96308 8.77599 4.25341 8.9102ZM16.4651 8.91737L16.5796 9.00994V11.551C16.5796 13.982 16.5755 14.0966 16.4872 14.1941L16.3948 14.296H12.3855H8.37612L8.28376 14.1941C8.19542 14.0966 8.19139 13.982 8.19139 11.551V9.00994L8.30587 8.91737C8.41647 8.82794 8.55378 8.82484 12.3855 8.82484C16.2172 8.82484 16.3545 8.82794 16.4651 8.91737ZM8.89071 9.20845L8.74899 9.34998V11.2926V13.2352L8.86802 13.3541L8.98701 13.4729H12.3855H15.7839L15.9029 13.3541L16.022 13.2352V11.2926V9.34998L15.8802 9.20845L15.7385 9.06693H12.3855H9.03244L8.89071 9.20845ZM15.2462 11.2699V12.6982H12.3855H9.52477V11.2699V9.84161H12.3855H15.2462V11.2699ZM21.7952 10.2093C23.0697 10.5832 23.8429 11.8326 23.5812 13.0953C23.4927 13.522 23.2275 14.0155 22.9191 14.3277C22.4381 14.8143 21.8232 15.0707 21.1373 15.0707C20.2538 15.0707 19.4531 14.6157 18.9926 13.8521C18.8146 13.5568 18.6402 12.938 18.6402 12.6014C18.6402 12.2648 18.8146 11.6459 18.9926 11.3511C19.4538 10.5872 20.2408 10.136 21.1163 10.1334C21.358 10.1326 21.642 10.1644 21.7952 10.2093ZM2.43604 10.7712C2.46804 10.8032 2.49423 10.9012 2.49423 10.9891C2.49423 11.1272 2.47784 11.1489 2.37301 11.1489C2.25465 11.1489 2.05785 10.9999 2.05785 10.9102C2.05785 10.8356 2.20462 10.7131 2.29403 10.7131C2.34014 10.7131 2.40404 10.7393 2.43604 10.7712ZM4.52096 10.7712C4.67219 10.9222 4.53439 11.1489 4.29143 11.1489C4.21041 11.1489 4.19125 11.1183 4.19125 10.9891C4.19125 10.8155 4.26316 10.7131 4.3852 10.7131C4.42787 10.7131 4.48896 10.7393 4.52096 10.7712ZM20.8706 10.9552C20.7809 11.0448 20.7736 11.1166 20.7736 11.92V12.7881L20.9014 12.8884C21.0179 12.9799 21.094 12.9888 21.7633 12.9888C22.3324 12.9888 22.5206 12.9727 22.5998 12.9172C22.816 12.7661 22.7789 12.3785 22.5378 12.2688C22.4717 12.2387 22.2223 12.2141 21.9835 12.2141H21.5494V11.7371C21.5494 11.2209 21.4927 10.9801 21.3536 10.9058C21.2072 10.8275 20.9746 10.8514 20.8706 10.9552ZM3.41547 12.9403C3.41547 13.8119 3.40509 13.9571 3.34274 13.9571C3.28039 13.9571 3.27001 13.8119 3.27001 12.9403C3.27001 12.0688 3.28039 11.9236 3.34274 11.9236C3.40509 11.9236 3.41547 12.0688 3.41547 12.9403ZM4.48217 14.7802C4.48217 14.8111 4.07004 14.8286 3.34274 14.8286C2.61544 14.8286 2.20331 14.8111 2.20331 14.7802C2.20331 14.7493 2.61544 14.7318 3.34274 14.7318C4.07004 14.7318 4.48217 14.7493 4.48217 14.7802ZM13.4522 15.2402V15.4096H12.3855H11.3188V15.2402V15.0707H12.3855H13.4522V15.2402ZM3.74503 15.6392C3.53964 15.6483 3.19054 15.6483 2.96925 15.6394C2.74801 15.6304 2.91606 15.623 3.34274 15.6229C3.76942 15.6229 3.95047 15.6302 3.74503 15.6392ZM15.024 16.2137C15.0662 16.2299 15.1007 16.2735 15.1007 16.3105C15.1007 16.3674 14.674 16.378 12.3855 16.378C10.0752 16.378 9.67023 16.3678 9.67023 16.3094C9.67023 16.2717 9.69753 16.2298 9.73084 16.2164C9.81821 16.1812 14.9324 16.1786 15.024 16.2137ZM3.63366 16.4748C3.61717 16.5015 3.48626 16.5232 3.34274 16.5232C3.19922 16.5232 3.06831 16.5015 3.05182 16.4748C3.03301 16.4444 3.14118 16.4264 3.34274 16.4264C3.5443 16.4264 3.65247 16.4444 3.63366 16.4748ZM9.16112 18.411C9.68065 18.5316 9.96939 18.6318 10.3638 18.8282C10.9917 19.1409 11.5254 19.5666 11.8492 20.0129L11.9976 20.2175V21.8759V23.5344L11.6494 23.3883C10.9421 23.0916 9.83014 22.8746 8.5914 22.7917L8.11866 22.7601V20.5075V18.255L8.44595 18.288C8.62598 18.3061 8.94778 18.3615 9.16112 18.411ZM16.6523 20.5177C16.6523 22.6781 16.6487 22.7691 16.5623 22.7691C16.5129 22.7691 16.1911 22.7913 15.8472 22.8185C14.7611 22.9044 13.6898 23.1337 13.0454 23.4183L12.7734 23.5385V21.8778V20.2172L13.1631 19.8013C14.0287 18.8774 14.771 18.4998 16.1189 18.2976C16.1856 18.2876 16.3329 18.2765 16.4462 18.2729L16.6523 18.2663V20.5177Z" fill="white"/>
</svg>
