<svg width="13" height="13" viewBox="0 0 13 13" fill="none" xmlns="http://www.w3.org/2000/svg">
<path d="M6.74122 0.0507812C10.1931 0.0507812 12.9912 2.84891 12.9912 6.30078C12.9912 9.75266 10.1931 12.5508 6.74122 12.5508C5.63671 12.5526 4.55163 12.2603 3.59747 11.7039L0.49372 12.5508L1.33872 9.44578C0.781903 8.49133 0.489374 7.40578 0.49122 6.30078C0.49122 2.84891 3.28935 0.0507812 6.74122 0.0507812ZM4.61122 3.36328L4.48622 3.36828C4.4053 3.37321 4.32621 3.39447 4.25372 3.43078C4.18592 3.46917 4.12403 3.51717 4.06997 3.57328C3.99497 3.64391 3.95247 3.70516 3.90684 3.76453C3.67567 4.0651 3.5512 4.4341 3.55309 4.81328C3.55434 5.11953 3.63434 5.41766 3.75934 5.69641C4.01497 6.26016 4.43559 6.85703 4.99059 7.41016C5.12434 7.54328 5.25559 7.67703 5.39684 7.80141C6.08646 8.40857 6.90825 8.84643 7.79684 9.08016L8.15184 9.13453C8.26747 9.14078 8.38309 9.13203 8.49934 9.12641C8.68137 9.11701 8.8591 9.06772 9.01997 8.98203C9.10182 8.93987 9.18169 8.89399 9.25935 8.84453C9.25935 8.84453 9.28622 8.82703 9.33747 8.78828C9.42185 8.72578 9.47372 8.68141 9.54372 8.60828C9.5956 8.55453 9.64059 8.49141 9.67497 8.41953C9.72372 8.31766 9.77247 8.12328 9.79247 7.96141C9.80747 7.83766 9.80309 7.77016 9.80122 7.72828C9.79872 7.66141 9.7431 7.59203 9.68247 7.56266L9.31872 7.39953C9.31872 7.39953 8.77497 7.16266 8.44247 7.01141C8.40768 6.99621 8.37039 6.98753 8.33247 6.98578C8.28971 6.98139 8.2465 6.9862 8.20575 6.99989C8.165 7.01358 8.12766 7.03584 8.09622 7.06516C8.09309 7.06391 8.05122 7.09953 7.59934 7.64703C7.57341 7.68188 7.53768 7.70822 7.49672 7.72269C7.45576 7.73716 7.41142 7.73911 7.36934 7.72828C7.32863 7.71736 7.28874 7.70358 7.24997 7.68703C7.17247 7.65453 7.14559 7.64203 7.09247 7.61953C6.73376 7.463 6.40165 7.2515 6.10809 6.99266C6.02934 6.92391 5.95622 6.84891 5.88122 6.77641C5.63534 6.54093 5.42105 6.27453 5.24372 5.98391L5.20684 5.92453C5.18036 5.88463 5.15894 5.8416 5.1431 5.79641C5.11934 5.70453 5.18122 5.63078 5.18122 5.63078C5.18122 5.63078 5.33309 5.46453 5.40372 5.37453C5.47247 5.28703 5.53059 5.20203 5.56809 5.14141C5.64184 5.02266 5.66497 4.90078 5.62622 4.80641C5.45122 4.37891 5.26997 3.95328 5.08372 3.53078C5.04684 3.44703 4.93747 3.38703 4.83809 3.37516C4.80434 3.37141 4.77059 3.36766 4.73684 3.36516C4.65291 3.36099 4.5688 3.36182 4.48497 3.36766L4.61059 3.36266L4.61122 3.36328Z" fill="#FF5155"/>
</svg>
